<svg version="1.1" xmlns="http://www.w3.org/2000/svg" viewBox="0 0 1269.799615479657 679.4996244457574" width="2539.599230959314" height="1358.9992488915148">
  <!-- svg-source:excalidraw -->
  
  <defs>
    <style class="style-fonts">
      @font-face {
        font-family: "Virgil";
        src: url("https://excalidraw.com/Virgil.woff2");
      }
      @font-face {
        font-family: "Cascadia";
        src: url("https://excalidraw.com/Cascadia.woff2");
      }
    </style>
    
  </defs>
  <rect x="0" y="0" width="1269.799615479657" height="679.4996244457574" fill="#ffffff"></rect><g stroke-linecap="round"><g transform="translate(618.021169967144 292.8953111610441) rotate(0 25.099278001702373 27.207569184385562)" fill-rule="evenodd"><path d="M1.07 0.89 L0.46 54.61 L12.96 57.43 L28.16 60.13 L41.04 60.27 L52.07 53.91 L50.66 -2.05 L42.81 -3.29 L25.79 -4.25 L4.81 -3.83 L-1.67 1.2" stroke="none" stroke-width="0" fill="#228be6" fill-rule="evenodd"></path><path d="M-0.68 0.34 C-0.64 8.52, 1.05 40.69, 1.13 49.73 C1.2 58.77, -0.33 53.25, -0.25 54.55 C-0.17 55.86, -0.38 56.72, 1.6 57.56 C3.58 58.4, 7.38 59.19, 11.63 59.59 C15.88 59.99, 21.95 60.2, 27.09 59.95 C32.23 59.7, 38.58 58.5, 42.45 58.1 C46.33 57.69, 49.06 58.16, 50.32 57.52 C51.57 56.87, 50.08 55.61, 49.96 54.2 C49.84 52.79, 49.33 57.43, 49.57 49.04 C49.82 40.65, 51.39 11.88, 51.44 3.85 C51.49 -4.18, 50.74 1.84, 49.86 0.88 C48.97 -0.08, 47.79 -1.24, 46.14 -1.9 C44.49 -2.56, 43.38 -2.7, 39.95 -3.08 C36.53 -3.46, 30.31 -3.78, 25.61 -4.2 C20.9 -4.62, 15.61 -6.01, 11.72 -5.61 C7.82 -5.2, 4.14 -2.53, 2.22 -1.76 C0.3 -0.98, 0.58 -1.27, 0.19 -0.96 C-0.2 -0.66, -0.23 -0.08, -0.11 0.07 M1.16 -0.53 C1.06 7.23, 1.07 38.47, 0.68 47.84 C0.3 57.21, -1.26 53.87, -1.15 55.69 C-1.05 57.52, -0.57 58.06, 1.31 58.8 C3.2 59.53, 5.61 60.08, 10.16 60.1 C14.7 60.11, 23.64 58.9, 28.6 58.88 C33.56 58.85, 36.4 60.14, 39.94 59.94 C43.48 59.74, 47.88 58.89, 49.85 57.68 C51.82 56.47, 51.75 53.65, 51.75 52.66 C51.75 51.68, 50.37 59.76, 49.86 51.76 C49.34 43.76, 48.91 13.14, 48.66 4.68 C48.4 -3.77, 48.76 2.19, 48.31 1.02 C47.87 -0.15, 47.5 -1.72, 45.99 -2.35 C44.47 -2.99, 43.06 -2.47, 39.21 -2.78 C35.36 -3.1, 27.31 -3.88, 22.88 -4.24 C18.44 -4.6, 16.26 -5.51, 12.61 -4.94 C8.96 -4.37, 3.26 -1.47, 0.99 -0.83 C-1.27 -0.18, -0.56 -1.28, -0.98 -1.08 C-1.4 -0.89, -1.42 -0.12, -1.55 0.36" stroke="#0a11d3" stroke-width="1" fill="none"></path></g></g><mask></mask><g stroke-linecap="round"><g transform="translate(618.4148351025262 330.2882168501137) rotate(0 25.023611090662882 2.8221132551894925)"><path d="M0.96 0.45 C1.25 0.71, 0.22 1.24, 1.07 1.9 C1.93 2.55, 3.8 3.76, 6.07 4.36 C8.35 4.95, 11.25 5.31, 14.72 5.47 C18.19 5.62, 22.4 5.58, 26.89 5.29 C31.38 5, 37.8 4.12, 41.64 3.74 C45.48 3.35, 48.49 3.68, 49.91 2.96 C51.34 2.25, 50.24 0.14, 50.19 -0.55 M0 -0.37 C0.18 0.04, -1.41 2.22, -0.01 3.25 C1.4 4.28, 5.94 5.23, 8.44 5.8 C10.93 6.38, 12.12 6.71, 14.96 6.69 C17.81 6.66, 21.36 5.78, 25.51 5.65 C29.67 5.52, 36.24 6.47, 39.9 5.89 C43.55 5.3, 45.94 3.28, 47.46 2.12 C48.97 0.97, 48.35 -0.79, 48.97 -1.04" stroke="#0a11d3" stroke-width="1" fill="none"></path></g></g><mask></mask><g stroke-linecap="round"><g transform="translate(617.7884284091674 311.3460156385911) rotate(0 25.669415418889685 2.2201847609881327)"><path d="M-0.26 -0.34 C-0.36 0, -0.9 1.7, 0.33 2.48 C1.55 3.26, 4.64 3.88, 7.07 4.33 C9.5 4.78, 11.48 5.17, 14.91 5.19 C18.34 5.21, 23.19 4.39, 27.66 4.46 C32.14 4.53, 38.28 6.05, 41.75 5.6 C45.22 5.14, 47.15 2.84, 48.47 1.71 C49.78 0.57, 49.12 -0.82, 49.65 -1.19 M1.81 -1.57 C1.98 -1.65, 1.76 -0.73, 2.51 0.49 C3.26 1.71, 4.18 4.8, 6.3 5.76 C8.43 6.73, 11.85 6.49, 15.25 6.26 C18.65 6.03, 22.56 4.58, 26.69 4.38 C30.83 4.18, 36.36 5.76, 40.06 5.06 C43.76 4.37, 46.95 1.39, 48.91 0.21 C50.87 -0.98, 51.53 -1.64, 51.8 -2.02" stroke="#0a11d3" stroke-width="1" fill="none"></path></g></g><mask></mask><g stroke-linecap="round" transform="translate(617.1465118091869 288.299414074401) rotate(0 25.09962977303229 5.0762112893275315)"><path d="M26.19 0.74 C31.45 0.74, 38.69 1.59, 42.67 2.05 C46.64 2.51, 49.56 2.68, 50.04 3.5 C50.52 4.33, 48.58 5.98, 45.54 7.01 C42.5 8.04, 36.81 9.34, 31.8 9.66 C26.8 9.98, 20.49 9.26, 15.5 8.93 C10.52 8.6, 4.39 8.41, 1.87 7.68 C-0.64 6.95, -0.88 5.83, 0.42 4.56 C1.73 3.29, 4.37 0.75, 9.72 0.05 C15.06 -0.65, 27.7 0.08, 32.5 0.36 C37.3 0.64, 38.62 1.82, 38.52 1.71 M35.06 1.71 C39.82 1.9, 44.99 2.3, 47.4 3.03 C49.81 3.76, 50.82 4.88, 49.53 6.1 C48.24 7.31, 43.91 9.53, 39.66 10.32 C35.41 11.11, 29.57 11.32, 24.02 10.84 C18.47 10.35, 10.35 8.07, 6.36 7.39 C2.37 6.72, 0.38 7.88, 0.1 6.77 C-0.18 5.65, 1.4 1.75, 4.67 0.68 C7.94 -0.38, 14.69 0.65, 19.73 0.4 C24.77 0.14, 32.12 -1.05, 34.91 -0.82 C37.69 -0.59, 36.52 1.61, 36.43 1.77" stroke="none" stroke-width="0" fill="#fff"></path><path d="M24.99 0.8 C29.94 0.85, 36.17 1.56, 40.44 2.07 C44.71 2.58, 49.58 3.07, 50.61 3.86 C51.64 4.66, 49.56 5.69, 46.62 6.83 C43.68 7.98, 38.01 10.26, 32.96 10.73 C27.91 11.2, 21.11 10.26, 16.33 9.64 C11.55 9.03, 6.85 7.94, 4.29 7.02 C1.73 6.11, 0.06 4.96, 0.97 4.15 C1.87 3.33, 5.1 2.87, 9.7 2.15 C14.3 1.43, 25.3 0.12, 28.58 -0.19 C31.86 -0.51, 29.53 0.11, 29.39 0.26 M16.73 0.27 C21.5 -0.08, 28.66 0.77, 33.56 0.91 C38.46 1.04, 43.23 0.51, 46.13 1.08 C49.03 1.65, 51.5 3, 50.96 4.31 C50.42 5.61, 47.12 7.79, 42.91 8.92 C38.71 10.06, 31.05 11.3, 25.74 11.11 C20.43 10.92, 15.25 8.77, 11.08 7.78 C6.91 6.79, 2.28 6, 0.74 5.17 C-0.8 4.34, -0.8 3.47, 1.84 2.79 C4.48 2.11, 14.47 1.53, 16.59 1.09 C18.72 0.65, 14.79 0.03, 14.57 0.14" stroke="#0a11d3" stroke-width="1" fill="none"></path></g><g stroke-linecap="round" transform="translate(658.1015038794326 302.37444665489284) rotate(0 3.6785913439135243 3.992397707537208)"><path d="M5.22 0.88 C6 0.8, 6.57 0.45, 6.83 0.92 C7.08 1.39, 6.97 2.76, 6.76 3.72 C6.55 4.69, 6.02 6.12, 5.57 6.7 C5.13 7.27, 4.91 7.05, 4.08 7.17 C3.25 7.3, 1.28 7.73, 0.58 7.44 C-0.13 7.15, -0.08 6.5, -0.16 5.45 C-0.24 4.4, -0.31 1.97, 0.09 1.14 C0.49 0.3, 1.3 0.4, 2.24 0.41 C3.18 0.43, 5.19 1.35, 5.73 1.22 C6.28 1.08, 5.5 -0.25, 5.53 -0.41 M4.65 0.41 C5.54 0.44, 6.76 0.99, 7.25 1.93 C7.75 2.87, 7.64 5.04, 7.63 6.04 C7.62 7.05, 8.03 7.84, 7.19 7.95 C6.35 8.07, 3.6 6.71, 2.59 6.74 C1.58 6.77, 1.56 8.77, 1.12 8.14 C0.69 7.51, -0.07 3.97, -0.01 2.94 C0.06 1.91, 1.24 2.65, 1.51 1.96 C1.79 1.28, 0.92 -1.11, 1.65 -1.18 C2.38 -1.25, 5.4 1.4, 5.9 1.54 C6.4 1.68, 4.73 -0.33, 4.66 -0.35" stroke="none" stroke-width="0" fill="#fff"></path><path d="M3.21 0.9 C4.11 0.73, 6.41 0.5, 7.06 0.82 C7.7 1.14, 7.28 1.78, 7.1 2.83 C6.91 3.89, 6.38 6.33, 5.93 7.13 C5.49 7.93, 4.91 7.65, 4.43 7.63 C3.95 7.61, 3.63 7.35, 3.06 7.03 C2.48 6.7, 1.32 6.17, 0.96 5.66 C0.6 5.14, 0.66 4.81, 0.9 3.95 C1.13 3.1, 1.92 1.16, 2.37 0.53 C2.82 -0.11, 3.11 0.15, 3.61 0.16 C4.11 0.16, 5.34 0.52, 5.35 0.56 M4.58 0.67 C5.11 0.44, 5.3 -0.5, 5.92 -0.28 C6.54 -0.07, 8 0.88, 8.31 1.95 C8.61 3.03, 8.39 5.04, 7.75 6.17 C7.12 7.3, 5.18 8.7, 4.5 8.74 C3.82 8.78, 4.32 7.04, 3.68 6.4 C3.03 5.76, 1.38 5.43, 0.61 4.91 C-0.17 4.39, -1.27 3.83, -0.97 3.27 C-0.68 2.72, 1.8 2.18, 2.39 1.58 C2.98 0.98, 2.54 -0.23, 2.56 -0.33 C2.59 -0.43, 2.16 0.73, 2.53 0.98" stroke="#0a11d3" stroke-width="1" fill="none"></path></g><g stroke-linecap="round" transform="translate(658.1015038794326 319.9010575763226) rotate(0 3.6785913439135243 3.992397707537208)"><path d="M5.02 -0.71 C5.58 -0.72, 6.05 0.35, 6.34 1.22 C6.63 2.08, 6.75 3.64, 6.74 4.48 C6.73 5.33, 6.94 5.65, 6.28 6.29 C5.62 6.92, 3.66 8.07, 2.79 8.3 C1.91 8.52, 1.54 8.42, 1.02 7.65 C0.51 6.87, -0.21 4.58, -0.3 3.65 C-0.4 2.72, -0.11 2.49, 0.45 2.06 C1.01 1.64, 2.21 1.52, 3.06 1.09 C3.91 0.67, 4.92 -0.39, 5.53 -0.5 C6.13 -0.62, 6.59 0.28, 6.69 0.4 M5.38 -0.03 C6.25 0.41, 6.81 2.3, 7.35 3.24 C7.89 4.18, 9.02 5.16, 8.64 5.61 C8.26 6.06, 5.94 5.34, 5.08 5.96 C4.23 6.57, 4.16 9.36, 3.5 9.28 C2.84 9.2, 1.57 6.23, 1.14 5.47 C0.7 4.71, 1.16 5.53, 0.89 4.7 C0.63 3.87, -0.85 1.04, -0.45 0.49 C-0.04 -0.07, 2.46 1.51, 3.31 1.35 C4.15 1.2, 4.24 -0.41, 4.61 -0.46 C4.98 -0.5, 5.46 1.03, 5.53 1.08" stroke="none" stroke-width="0" fill="#fff"></path><path d="M5.91 0 C6.7 -0.01, 6.61 0.44, 6.71 1.4 C6.8 2.36, 6.66 4.84, 6.49 5.77 C6.31 6.69, 6.01 6.7, 5.66 6.97 C5.31 7.24, 5.04 7.4, 4.39 7.38 C3.74 7.36, 2.37 7.18, 1.77 6.86 C1.17 6.53, 0.87 6.32, 0.81 5.44 C0.75 4.57, 1.28 2.48, 1.42 1.61 C1.56 0.74, 0.93 0.37, 1.67 0.22 C2.41 0.08, 5.28 0.64, 5.87 0.75 C6.45 0.86, 5.25 0.71, 5.18 0.87 M3.35 -1.28 C4.13 -1.72, 6.12 -1.37, 6.93 -0.61 C7.75 0.15, 8.28 2.01, 8.22 3.25 C8.16 4.49, 6.89 6.3, 6.59 6.82 C6.28 7.35, 7.05 6.39, 6.41 6.39 C5.76 6.39, 3.86 6.84, 2.71 6.81 C1.56 6.78, -0.21 6.63, -0.49 6.19 C-0.77 5.75, 0.95 5.06, 1.03 4.15 C1.11 3.23, -0.21 1.24, 0 0.7 C0.21 0.16, 1.54 0.88, 2.3 0.9 C3.06 0.93, 4.34 1.04, 4.57 0.85" stroke="#0a11d3" stroke-width="1" fill="none"></path></g><g stroke-linecap="round" transform="translate(658.1015038794326 338.95015487437615) rotate(0 3.6785913439135243 3.992397707537208)"><path d="M4.34 -0.62 C4.97 -0.28, 5.75 0.94, 6.29 1.68 C6.84 2.42, 7.77 2.89, 7.6 3.83 C7.43 4.77, 5.94 6.53, 5.25 7.33 C4.57 8.13, 4.19 8.83, 3.48 8.63 C2.77 8.43, 1.58 6.74, 1 6.11 C0.42 5.49, -0.03 5.4, -0.02 4.86 C-0.01 4.33, 0.63 3.85, 1.05 2.91 C1.46 1.98, 1.55 -0.28, 2.47 -0.73 C3.39 -1.18, 5.78 -0.02, 6.56 0.21 C7.34 0.45, 7.18 0.62, 7.13 0.68 M4.13 1.05 C5.07 1.19, 7.07 1.51, 7.47 1.69 C7.87 1.87, 6.61 1.19, 6.51 2.13 C6.41 3.08, 7.13 6.65, 6.86 7.35 C6.58 8.05, 5.46 6.23, 4.85 6.33 C4.25 6.43, 4.13 8.24, 3.23 7.96 C2.32 7.67, -0.17 5.2, -0.59 4.61 C-1 4.02, 0.52 5.16, 0.76 4.41 C1 3.66, 0.28 0.73, 0.85 0.11 C1.42 -0.51, 3.68 0.83, 4.17 0.69 C4.66 0.55, 4.02 -0.73, 3.8 -0.75" stroke="none" stroke-width="0" fill="#fff"></path><path d="M5.02 -0.38 C5.45 0.12, 5.92 2.35, 6.25 3.22 C6.57 4.09, 6.92 4.27, 6.99 4.85 C7.06 5.43, 7.17 6.17, 6.66 6.68 C6.15 7.19, 4.73 7.73, 3.92 7.9 C3.12 8.08, 2.35 8.38, 1.84 7.75 C1.32 7.11, 1.19 5.09, 0.84 4.09 C0.5 3.08, -0.61 2.35, -0.24 1.72 C0.12 1.09, 2.22 0.52, 3.05 0.31 C3.88 0.09, 4.27 0.23, 4.72 0.43 C5.17 0.63, 5.65 1.33, 5.74 1.49 M5.48 -1.36 C6.41 -1, 7.29 0.58, 7.55 1.66 C7.8 2.74, 6.98 4.52, 7.01 5.14 C7.04 5.76, 8.18 5.09, 7.73 5.39 C7.28 5.7, 5.5 6.63, 4.31 6.97 C3.13 7.31, 1.17 7.61, 0.64 7.43 C0.12 7.25, 1.42 6.78, 1.16 5.89 C0.9 5.01, -0.86 2.88, -0.93 2.12 C-1 1.37, -0.33 1.55, 0.74 1.34 C1.81 1.13, 4.86 1.17, 5.51 0.86 C6.16 0.55, 4.66 -0.37, 4.64 -0.51" stroke="#0a11d3" stroke-width="1" fill="none"></path></g><g transform="translate(770.799615479657 449) rotate(0 0 0.5)" stroke="none"><path fill="#1e1e1e" d="M 1.25,-0.39 Q 1.25,-0.39 1.27,-0.07 1.29,0.23 1.16,0.52 1.03,0.80 0.78,1.00 0.53,1.19 0.22,1.25 -0.07,1.31 -0.37,1.21 -0.67,1.12 -0.90,0.90 -1.12,0.67 -1.21,0.37 -1.31,0.07 -1.25,-0.23 -1.19,-0.53 -1.00,-0.78 -0.80,-1.03 -0.52,-1.16 -0.23,-1.29 0.07,-1.27 0.39,-1.25 0.65,-1.09 0.92,-0.92 1.09,-0.65 L 1.25,-0.39 Z"></path></g><g stroke-linecap="round" transform="translate(158.15929367740455 260.7314830501112) rotate(0 67.28366836817534 40.268516949888834)"><path d="M-1.31 -1.4 C52.6 1.18, 105.93 -1.77, 134.13 -1.67 M0.11 -0.46 C49.08 -1, 97.61 -0.3, 135.24 0.02 M133.46 -0.55 C134.7 14.7, 132.47 33.27, 134.09 81.83 M134.7 0.58 C134.67 21.45, 132.8 43.61, 134.15 81.39 M134.64 80.88 C101.73 80.55, 71.23 81.87, 0.94 79.47 M134.55 79.58 C105.83 81.86, 75.24 80.82, 0.46 81.32 M0.92 80.62 C-0.68 57.95, 0.66 38.09, -0.8 -0.09 M0.77 80 C0.01 55.61, -0.99 31.96, -0.15 -0.35" stroke="#000000" stroke-width="1" fill="none"></path></g><g stroke-linecap="round"><g transform="translate(157.02748273422372 272.0080879779488) rotate(0 67.76541056071554 -0.38578939380357724)"><path d="M-0.84 0.07 C21.87 0.29, 113.8 0.62, 136.37 0.57 M0.92 -0.95 C23.53 -1.01, 113.16 -1.56, 135.84 -1.25" stroke="#000000" stroke-width="1" fill="none"></path></g></g><mask></mask><g stroke-linecap="round" transform="translate(162.881884118784 265.2262948328497) rotate(0 2.6316833032798854 2.6316833032798854)"><path d="M5.26 2.63 C5.26 2.78, 5.25 2.94, 5.22 3.09 C5.2 3.24, 5.16 3.39, 5.1 3.53 C5.05 3.67, 4.99 3.82, 4.91 3.95 C4.83 4.08, 4.75 4.21, 4.65 4.32 C4.55 4.44, 4.44 4.55, 4.32 4.65 C4.21 4.75, 4.08 4.83, 3.95 4.91 C3.82 4.99, 3.67 5.05, 3.53 5.1 C3.39 5.16, 3.24 5.2, 3.09 5.22 C2.94 5.25, 2.78 5.26, 2.63 5.26 C2.48 5.26, 2.32 5.25, 2.17 5.22 C2.02 5.2, 1.87 5.16, 1.73 5.1 C1.59 5.05, 1.45 4.99, 1.32 4.91 C1.18 4.83, 1.06 4.75, 0.94 4.65 C0.82 4.55, 0.71 4.44, 0.62 4.32 C0.52 4.21, 0.43 4.08, 0.35 3.95 C0.28 3.82, 0.21 3.67, 0.16 3.53 C0.11 3.39, 0.07 3.24, 0.04 3.09 C0.01 2.94, 0 2.78, 0 2.63 C0 2.48, 0.01 2.32, 0.04 2.17 C0.07 2.02, 0.11 1.87, 0.16 1.73 C0.21 1.59, 0.28 1.45, 0.35 1.32 C0.43 1.18, 0.52 1.06, 0.62 0.94 C0.71 0.82, 0.82 0.71, 0.94 0.62 C1.06 0.52, 1.18 0.43, 1.32 0.35 C1.45 0.28, 1.59 0.21, 1.73 0.16 C1.87 0.11, 2.02 0.07, 2.17 0.04 C2.32 0.01, 2.48 0, 2.63 0 C2.78 0, 2.94 0.01, 3.09 0.04 C3.24 0.07, 3.39 0.11, 3.53 0.16 C3.67 0.21, 3.82 0.28, 3.95 0.35 C4.08 0.43, 4.21 0.52, 4.32 0.62 C4.44 0.71, 4.55 0.82, 4.65 0.94 C4.75 1.06, 4.83 1.18, 4.91 1.32 C4.99 1.45, 5.05 1.59, 5.1 1.73 C5.16 1.87, 5.2 2.02, 5.22 2.17 C5.25 2.32, 5.26 2.56, 5.26 2.63 C5.27 2.71, 5.27 2.56, 5.26 2.63" stroke="none" stroke-width="0" fill="#fa5252"></path><path d="M5.26 2.63 C5.26 2.78, 5.25 2.94, 5.22 3.09 C5.2 3.24, 5.16 3.39, 5.1 3.53 C5.05 3.67, 4.99 3.82, 4.91 3.95 C4.83 4.08, 4.75 4.21, 4.65 4.32 C4.55 4.44, 4.44 4.55, 4.32 4.65 C4.21 4.75, 4.08 4.83, 3.95 4.91 C3.82 4.99, 3.67 5.05, 3.53 5.1 C3.39 5.16, 3.24 5.2, 3.09 5.22 C2.94 5.25, 2.78 5.26, 2.63 5.26 C2.48 5.26, 2.32 5.25, 2.17 5.22 C2.02 5.2, 1.87 5.16, 1.73 5.1 C1.59 5.05, 1.45 4.99, 1.32 4.91 C1.18 4.83, 1.06 4.75, 0.94 4.65 C0.82 4.55, 0.71 4.44, 0.62 4.32 C0.52 4.21, 0.43 4.08, 0.35 3.95 C0.28 3.82, 0.21 3.67, 0.16 3.53 C0.11 3.39, 0.07 3.24, 0.04 3.09 C0.01 2.94, 0 2.78, 0 2.63 C0 2.48, 0.01 2.32, 0.04 2.17 C0.07 2.02, 0.11 1.87, 0.16 1.73 C0.21 1.59, 0.28 1.45, 0.35 1.32 C0.43 1.18, 0.52 1.06, 0.62 0.94 C0.71 0.82, 0.82 0.71, 0.94 0.62 C1.06 0.52, 1.18 0.43, 1.32 0.35 C1.45 0.28, 1.59 0.21, 1.73 0.16 C1.87 0.11, 2.02 0.07, 2.17 0.04 C2.32 0.01, 2.48 0, 2.63 0 C2.78 0, 2.94 0.01, 3.09 0.04 C3.24 0.07, 3.39 0.11, 3.53 0.16 C3.67 0.21, 3.82 0.28, 3.95 0.35 C4.08 0.43, 4.21 0.52, 4.32 0.62 C4.44 0.71, 4.55 0.82, 4.65 0.94 C4.75 1.06, 4.83 1.18, 4.91 1.32 C4.99 1.45, 5.05 1.59, 5.1 1.73 C5.16 1.87, 5.2 2.02, 5.22 2.17 C5.25 2.32, 5.26 2.56, 5.26 2.63 C5.27 2.71, 5.27 2.56, 5.26 2.63" stroke="#000000" stroke-width="1" fill="none"></path></g><g stroke-linecap="round" transform="translate(173.68093130120036 265.2262948328497) rotate(0 2.6316833032798854 2.6316833032798854)"><path d="M5.26 2.63 C5.26 2.78, 5.25 2.94, 5.22 3.09 C5.2 3.24, 5.16 3.39, 5.1 3.53 C5.05 3.67, 4.99 3.82, 4.91 3.95 C4.83 4.08, 4.75 4.21, 4.65 4.32 C4.55 4.44, 4.44 4.55, 4.32 4.65 C4.21 4.75, 4.08 4.83, 3.95 4.91 C3.82 4.99, 3.67 5.05, 3.53 5.1 C3.39 5.16, 3.24 5.2, 3.09 5.22 C2.94 5.25, 2.78 5.26, 2.63 5.26 C2.48 5.26, 2.32 5.25, 2.17 5.22 C2.02 5.2, 1.87 5.16, 1.73 5.1 C1.59 5.05, 1.45 4.99, 1.32 4.91 C1.18 4.83, 1.06 4.75, 0.94 4.65 C0.82 4.55, 0.71 4.44, 0.62 4.32 C0.52 4.21, 0.43 4.08, 0.35 3.95 C0.28 3.82, 0.21 3.67, 0.16 3.53 C0.11 3.39, 0.07 3.24, 0.04 3.09 C0.01 2.94, 0 2.78, 0 2.63 C0 2.48, 0.01 2.32, 0.04 2.17 C0.07 2.02, 0.11 1.87, 0.16 1.73 C0.21 1.59, 0.28 1.45, 0.35 1.32 C0.43 1.18, 0.52 1.06, 0.62 0.94 C0.71 0.82, 0.82 0.71, 0.94 0.62 C1.06 0.52, 1.18 0.43, 1.32 0.35 C1.45 0.28, 1.59 0.21, 1.73 0.16 C1.87 0.11, 2.02 0.07, 2.17 0.04 C2.32 0.01, 2.48 0, 2.63 0 C2.78 0, 2.94 0.01, 3.09 0.04 C3.24 0.07, 3.39 0.11, 3.53 0.16 C3.67 0.21, 3.82 0.28, 3.95 0.35 C4.08 0.43, 4.21 0.52, 4.32 0.62 C4.44 0.71, 4.55 0.82, 4.65 0.94 C4.75 1.06, 4.83 1.18, 4.91 1.32 C4.99 1.45, 5.05 1.59, 5.1 1.73 C5.16 1.87, 5.2 2.02, 5.22 2.17 C5.25 2.32, 5.26 2.56, 5.26 2.63 C5.27 2.71, 5.27 2.56, 5.26 2.63" stroke="none" stroke-width="0" fill="#fab005"></path><path d="M5.26 2.63 C5.26 2.78, 5.25 2.94, 5.22 3.09 C5.2 3.24, 5.16 3.39, 5.1 3.53 C5.05 3.67, 4.99 3.82, 4.91 3.95 C4.83 4.08, 4.75 4.21, 4.65 4.32 C4.55 4.44, 4.44 4.55, 4.32 4.65 C4.21 4.75, 4.08 4.83, 3.95 4.91 C3.82 4.99, 3.67 5.05, 3.53 5.1 C3.39 5.16, 3.24 5.2, 3.09 5.22 C2.94 5.25, 2.78 5.26, 2.63 5.26 C2.48 5.26, 2.32 5.25, 2.17 5.22 C2.02 5.2, 1.87 5.16, 1.73 5.1 C1.59 5.05, 1.45 4.99, 1.32 4.91 C1.18 4.83, 1.06 4.75, 0.94 4.65 C0.82 4.55, 0.71 4.44, 0.62 4.32 C0.52 4.21, 0.43 4.08, 0.35 3.95 C0.28 3.82, 0.21 3.67, 0.16 3.53 C0.11 3.39, 0.07 3.24, 0.04 3.09 C0.01 2.94, 0 2.78, 0 2.63 C0 2.48, 0.01 2.32, 0.04 2.17 C0.07 2.02, 0.11 1.87, 0.16 1.73 C0.21 1.59, 0.28 1.45, 0.35 1.32 C0.43 1.18, 0.52 1.06, 0.62 0.94 C0.71 0.82, 0.82 0.71, 0.94 0.62 C1.06 0.52, 1.18 0.43, 1.32 0.35 C1.45 0.28, 1.59 0.21, 1.73 0.16 C1.87 0.11, 2.02 0.07, 2.17 0.04 C2.32 0.01, 2.48 0, 2.63 0 C2.78 0, 2.94 0.01, 3.09 0.04 C3.24 0.07, 3.39 0.11, 3.53 0.16 C3.67 0.21, 3.82 0.28, 3.95 0.35 C4.08 0.43, 4.21 0.52, 4.32 0.62 C4.44 0.71, 4.55 0.82, 4.65 0.94 C4.75 1.06, 4.83 1.18, 4.91 1.32 C4.99 1.45, 5.05 1.59, 5.1 1.73 C5.16 1.87, 5.2 2.02, 5.22 2.17 C5.25 2.32, 5.26 2.56, 5.26 2.63 C5.27 2.71, 5.27 2.56, 5.26 2.63" stroke="#000000" stroke-width="1" fill="none"></path></g><g stroke-linecap="round" transform="translate(184.95425535321942 265.7005717024523) rotate(0 2.6316833032798854 2.6316833032798854)"><path d="M5.26 2.63 C5.26 2.78, 5.25 2.94, 5.22 3.09 C5.2 3.24, 5.16 3.39, 5.1 3.53 C5.05 3.67, 4.99 3.82, 4.91 3.95 C4.83 4.08, 4.75 4.21, 4.65 4.32 C4.55 4.44, 4.44 4.55, 4.32 4.65 C4.21 4.75, 4.08 4.83, 3.95 4.91 C3.82 4.99, 3.67 5.05, 3.53 5.1 C3.39 5.16, 3.24 5.2, 3.09 5.22 C2.94 5.25, 2.78 5.26, 2.63 5.26 C2.48 5.26, 2.32 5.25, 2.17 5.22 C2.02 5.2, 1.87 5.16, 1.73 5.1 C1.59 5.05, 1.45 4.99, 1.32 4.91 C1.18 4.83, 1.06 4.75, 0.94 4.65 C0.82 4.55, 0.71 4.44, 0.62 4.32 C0.52 4.21, 0.43 4.08, 0.35 3.95 C0.28 3.82, 0.21 3.67, 0.16 3.53 C0.11 3.39, 0.07 3.24, 0.04 3.09 C0.01 2.94, 0 2.78, 0 2.63 C0 2.48, 0.01 2.32, 0.04 2.17 C0.07 2.02, 0.11 1.87, 0.16 1.73 C0.21 1.59, 0.28 1.45, 0.35 1.32 C0.43 1.18, 0.52 1.06, 0.62 0.94 C0.71 0.82, 0.82 0.71, 0.94 0.62 C1.06 0.52, 1.18 0.43, 1.32 0.35 C1.45 0.28, 1.59 0.21, 1.73 0.16 C1.87 0.11, 2.02 0.07, 2.17 0.04 C2.32 0.01, 2.48 0, 2.63 0 C2.78 0, 2.94 0.01, 3.09 0.04 C3.24 0.07, 3.39 0.11, 3.53 0.16 C3.67 0.21, 3.82 0.28, 3.95 0.35 C4.08 0.43, 4.21 0.52, 4.32 0.62 C4.44 0.71, 4.55 0.82, 4.65 0.94 C4.75 1.06, 4.83 1.18, 4.91 1.32 C4.99 1.45, 5.05 1.59, 5.1 1.73 C5.16 1.87, 5.2 2.02, 5.22 2.17 C5.25 2.32, 5.26 2.56, 5.26 2.63 C5.27 2.71, 5.27 2.56, 5.26 2.63" stroke="none" stroke-width="0" fill="#40c057"></path><path d="M5.26 2.63 C5.26 2.78, 5.25 2.94, 5.22 3.09 C5.2 3.24, 5.16 3.39, 5.1 3.53 C5.05 3.67, 4.99 3.82, 4.91 3.95 C4.83 4.08, 4.75 4.21, 4.65 4.32 C4.55 4.44, 4.44 4.55, 4.32 4.65 C4.21 4.75, 4.08 4.83, 3.95 4.91 C3.82 4.99, 3.67 5.05, 3.53 5.1 C3.39 5.16, 3.24 5.2, 3.09 5.22 C2.94 5.25, 2.78 5.26, 2.63 5.26 C2.48 5.26, 2.32 5.25, 2.17 5.22 C2.02 5.2, 1.87 5.16, 1.73 5.1 C1.59 5.05, 1.45 4.99, 1.32 4.91 C1.18 4.83, 1.06 4.75, 0.94 4.65 C0.82 4.55, 0.71 4.44, 0.62 4.32 C0.52 4.21, 0.43 4.08, 0.35 3.95 C0.28 3.82, 0.21 3.67, 0.16 3.53 C0.11 3.39, 0.07 3.24, 0.04 3.09 C0.01 2.94, 0 2.78, 0 2.63 C0 2.48, 0.01 2.32, 0.04 2.17 C0.07 2.02, 0.11 1.87, 0.16 1.73 C0.21 1.59, 0.28 1.45, 0.35 1.32 C0.43 1.18, 0.52 1.06, 0.62 0.94 C0.71 0.82, 0.82 0.71, 0.94 0.62 C1.06 0.52, 1.18 0.43, 1.32 0.35 C1.45 0.28, 1.59 0.21, 1.73 0.16 C1.87 0.11, 2.02 0.07, 2.17 0.04 C2.32 0.01, 2.48 0, 2.63 0 C2.78 0, 2.94 0.01, 3.09 0.04 C3.24 0.07, 3.39 0.11, 3.53 0.16 C3.67 0.21, 3.82 0.28, 3.95 0.35 C4.08 0.43, 4.21 0.52, 4.32 0.62 C4.44 0.71, 4.55 0.82, 4.65 0.94 C4.75 1.06, 4.83 1.18, 4.91 1.32 C4.99 1.45, 5.05 1.59, 5.1 1.73 C5.16 1.87, 5.2 2.02, 5.22 2.17 C5.25 2.32, 5.26 2.56, 5.26 2.63 C5.27 2.71, 5.27 2.56, 5.26 2.63" stroke="#000000" stroke-width="1" fill="none"></path></g><g stroke-opacity="0.9" fill-opacity="0.9" stroke-linecap="round" transform="translate(201.81892711363315 282.59187399923826) rotate(0 22.47642889208609 22.47642889208609)"><path d="M23.06 0.19 C27.67 0.09, 33.28 2.28, 36.88 5.52 C40.48 8.75, 43.89 14.73, 44.66 19.62 C45.42 24.52, 44.05 30.79, 41.47 34.89 C38.89 38.99, 33.87 42.9, 29.18 44.23 C24.5 45.57, 17.88 44.76, 13.36 42.92 C8.84 41.07, 4.28 37.22, 2.07 33.16 C-0.14 29.1, -0.87 23.36, 0.08 18.57 C1.03 13.78, 3.32 7.27, 7.79 4.41 C12.26 1.54, 23.05 1.57, 26.89 1.38 C30.74 1.2, 30.71 3, 30.86 3.29 M28.09 0.36 C32.62 1.43, 38.31 6.62, 41.2 10.52 C44.1 14.42, 45.67 18.91, 45.43 23.77 C45.19 28.64, 43.21 36.21, 39.76 39.73 C36.32 43.24, 30.08 44.51, 24.78 44.88 C19.48 45.24, 11.86 44.49, 7.97 41.9 C4.07 39.3, 2.52 34.32, 1.41 29.3 C0.29 24.28, -0.77 16.22, 1.28 11.79 C3.32 7.36, 9.1 4.36, 13.68 2.74 C18.25 1.13, 26.17 2.59, 28.73 2.11 C31.28 1.62, 29.13 -0.09, 29.01 -0.19" stroke="none" stroke-width="0" fill="#04aaf7"></path><path d="M23.42 0.77 C28.14 0.75, 34.68 3.76, 38.25 6.77 C41.81 9.78, 44.4 14.31, 44.81 18.84 C45.23 23.37, 43.46 29.79, 40.73 33.94 C37.99 38.08, 32.89 42.32, 28.42 43.72 C23.95 45.11, 18.39 44.12, 13.91 42.33 C9.44 40.53, 3.85 36.98, 1.59 32.92 C-0.67 28.87, -0.83 22.89, 0.35 17.99 C1.53 13.09, 3.87 6.32, 8.67 3.51 C13.46 0.71, 24.78 0.98, 29.09 1.15 C33.41 1.33, 34.64 4.4, 34.56 4.57 M31.3 3.42 C35.56 4.94, 40.21 9.12, 42.39 13.25 C44.57 17.38, 45.52 23.38, 44.38 28.18 C43.24 32.99, 39.34 39.18, 35.56 42.08 C31.77 44.97, 26.64 46.4, 21.65 45.55 C16.66 44.7, 9.2 40.31, 5.61 36.96 C2.02 33.62, 0.33 30.33, 0.09 25.5 C-0.15 20.66, 1.24 12.04, 4.18 7.95 C7.13 3.86, 13.27 2.12, 17.76 0.94 C22.25 -0.24, 28.66 0.41, 31.15 0.89 C33.64 1.36, 32.77 3.37, 32.69 3.8" stroke="#000000" stroke-width="1" fill="none"></path></g><g stroke-linecap="round"><g transform="translate(230.31225780448193 299.6641477161447) rotate(0 -3.6451308835783607 6.8191348809900205)" fill-rule="evenodd"><path d="M0 0 L-1.93 -0.44 L-7.97 -6.6 L-10.25 -6.41 L-11.95 -4.57 L-13.27 2.5 L-11.86 7.09 L-18.34 9.35 L-18.94 12.01 L-18.1 14.36 L-15.79 14.77 L-13.03 14.05 L-9.15 9.97 L-3.81 18.8 L-1.57 20.39 L-0.44 19.12 L-3.97 5.05 L-1.6 3.83 L1.46 4.57 L3.33 6.17 L6.54 6.62 L9.72 6.17 L11.37 3.39 L11.37 0.67 L4.44 1.17 L5.77 -6.06 L4.45 -6.59 L2.6 -5.62 L-0.25 -0.97 L0 0" stroke="none" stroke-width="0" fill="#40c057" fill-rule="evenodd"></path><path d="M0 0 C-0.32 -0.07, -0.6 0.66, -1.93 -0.44 C-3.25 -1.54, -6.3 -5.91, -7.97 -6.6 C-9.64 -7.29, -11.07 -6.09, -11.95 -4.57 C-12.84 -3.06, -13.29 0.55, -13.27 2.5 C-13.26 4.44, -11.01 5.95, -11.86 7.09 C-12.7 8.23, -17.29 8.14, -18.34 9.35 C-19.38 10.56, -18.99 13.57, -18.1 14.36 C-17.22 15.14, -14.52 14.78, -13.03 14.05 C-11.54 13.32, -10.69 9.18, -9.15 9.97 C-7.61 10.77, -5.26 17.28, -3.81 18.8 C-2.36 20.33, -0.41 21.41, -0.44 19.12 C-0.46 16.83, -4.29 7.48, -3.97 5.05 C-3.66 2.63, 0.24 4.39, 1.46 4.57 C2.68 4.76, 1.95 5.91, 3.33 6.17 C4.7 6.44, 8.38 7.09, 9.72 6.17 C11.06 5.26, 12.25 1.5, 11.37 0.67 C10.49 -0.17, 5.37 2.29, 4.44 1.17 C3.51 0.05, 6.08 -4.93, 5.77 -6.06 C5.47 -7.19, 3.61 -6.47, 2.6 -5.62 C1.6 -4.78, 0.18 -1.91, -0.25 -0.97 C-0.68 -0.03, -0.04 -0.16, 0 0 M0 0 C-0.32 -0.07, -0.6 0.66, -1.93 -0.44 C-3.25 -1.54, -6.3 -5.91, -7.97 -6.6 C-9.64 -7.29, -11.07 -6.09, -11.95 -4.57 C-12.84 -3.06, -13.29 0.55, -13.27 2.5 C-13.26 4.44, -11.01 5.95, -11.86 7.09 C-12.7 8.23, -17.29 8.14, -18.34 9.35 C-19.38 10.56, -18.99 13.57, -18.1 14.36 C-17.22 15.14, -14.52 14.78, -13.03 14.05 C-11.54 13.32, -10.69 9.18, -9.15 9.97 C-7.61 10.77, -5.26 17.28, -3.81 18.8 C-2.36 20.33, -0.41 21.41, -0.44 19.12 C-0.46 16.83, -4.29 7.48, -3.97 5.05 C-3.66 2.63, 0.24 4.39, 1.46 4.57 C2.68 4.76, 1.95 5.91, 3.33 6.17 C4.7 6.44, 8.38 7.09, 9.72 6.17 C11.06 5.26, 12.25 1.5, 11.37 0.67 C10.49 -0.17, 5.37 2.29, 4.44 1.17 C3.51 0.05, 6.08 -4.93, 5.77 -6.06 C5.47 -7.19, 3.61 -6.47, 2.6 -5.62 C1.6 -4.78, 0.18 -1.91, -0.25 -0.97 C-0.68 -0.03, -0.04 -0.16, 0 0" stroke="#087f5b" stroke-width="1" fill="none"></path></g></g><mask></mask><g stroke-linecap="round"><g stroke-opacity="0.9" fill-opacity="0.9" transform="translate(202.93333860865437 304.6503151586567) rotate(0 22.443320646589484 -0.6493521333373735)"><path d="M0.77 -0.37 C8.27 -0.2, 37.79 0.39, 45.18 0.46 M-0.29 -1.61 C7.12 -1.76, 37.18 -1.91, 44.69 -1.42" stroke="#000000" stroke-width="1" fill="none"></path></g></g><mask></mask><g stroke-linecap="round"><g stroke-opacity="0.9" fill-opacity="0.9" transform="translate(208.2949611577959 288.4091425382766) rotate(0 15.425431935606156 2.7649402192270145)"><path d="M0 0 C0.14 0.4, 0.09 1.66, 0.81 2.4 C1.53 3.13, 2.96 3.87, 4.32 4.41 C5.68 4.94, 6.99 5.4, 8.98 5.62 C10.98 5.84, 13.65 5.84, 16.29 5.73 C18.93 5.62, 22.57 5.56, 24.82 4.96 C27.07 4.36, 28.79 3.01, 29.8 2.14 C30.8 1.27, 30.68 0.13, 30.85 -0.28 M0 0 C0.14 0.4, 0.09 1.66, 0.81 2.4 C1.53 3.13, 2.96 3.87, 4.32 4.41 C5.68 4.94, 6.99 5.4, 8.98 5.62 C10.98 5.84, 13.65 5.84, 16.29 5.73 C18.93 5.62, 22.57 5.56, 24.82 4.96 C27.07 4.36, 28.79 3.01, 29.8 2.14 C30.8 1.27, 30.68 0.13, 30.85 -0.28" stroke="#000000" stroke-width="1" fill="none"></path></g></g><mask></mask><g stroke-opacity="0.9" fill-opacity="0.9" stroke-linecap="round" transform="translate(216.79083834739464 281.1370902171576) rotate(0 8.169992879166273 23.582409868940843)"><path d="M3.8 2.46 C5.36 -0.04, 8.51 -1.44, 10.18 -0.29 C11.84 0.87, 12.81 5.18, 13.79 9.41 C14.78 13.64, 16.08 20.26, 16.09 25.09 C16.11 29.93, 15.03 34.77, 13.88 38.43 C12.74 42.09, 10.79 46.07, 9.21 47.07 C7.63 48.07, 5.86 47.31, 4.4 44.44 C2.95 41.56, 0.97 34.87, 0.49 29.84 C0 24.82, 0.49 19.17, 1.49 14.29 C2.5 9.4, 5.47 2.85, 6.54 0.52 C7.61 -1.81, 8.03 -0.2, 7.93 0.3 M8.6 0.87 C10.05 -0.37, 10.63 -0.22, 11.86 2.65 C13.1 5.53, 15.39 13.33, 16.02 18.13 C16.65 22.94, 16.2 27.04, 15.65 31.5 C15.09 35.96, 14.43 42.61, 12.7 44.9 C10.96 47.18, 6.97 46.21, 5.23 45.2 C3.5 44.19, 3.26 42.8, 2.31 38.84 C1.35 34.87, -0.56 26.54, -0.5 21.42 C-0.44 16.29, 1.36 11.76, 2.66 8.08 C3.96 4.4, 6.67 0.54, 7.29 -0.67 C7.91 -1.88, 6.31 0.38, 6.36 0.81" stroke="#000000" stroke-width="1" fill="none"></path></g><g stroke-linecap="round"><g stroke-opacity="0.9" fill-opacity="0.9" transform="translate(209.8901397517434 321.8048874313701) rotate(0 15.425431935606156 -2.8544364397250206)"><path d="M0 0 C0.72 -0.76, 2.82 -3.58, 4.32 -4.55 C5.82 -5.52, 6.99 -5.58, 8.98 -5.8 C10.98 -6.03, 13.65 -6.03, 16.29 -5.92 C18.93 -5.8, 22.57 -5.74, 24.82 -5.12 C27.07 -4.5, 28.79 -3.11, 29.8 -2.21 C30.8 -1.31, 30.68 -0.13, 30.85 0.29 M0 0 C0.72 -0.76, 2.82 -3.58, 4.32 -4.55 C5.82 -5.52, 6.99 -5.58, 8.98 -5.8 C10.98 -6.03, 13.65 -6.03, 16.29 -5.92 C18.93 -5.8, 22.57 -5.74, 24.82 -5.12 C27.07 -4.5, 28.79 -3.11, 29.8 -2.21 C30.8 -1.31, 30.68 -0.13, 30.85 0.29" stroke="#000000" stroke-width="1" fill="none"></path></g></g><mask></mask><g transform="translate(112.799615479657 205) rotate(0 160.41000366210938 25)"><text x="0" y="0" font-family="Virgil, Segoe UI Emoji" font-size="20px" fill="#1e1e1e" text-anchor="start" style="white-space: pre;" direction="ltr" dominant-baseline="text-before-edge">The end-user app</text><text x="0" y="25" font-family="Virgil, Segoe UI Emoji" font-size="20px" fill="#1e1e1e" text-anchor="start" style="white-space: pre;" direction="ltr" dominant-baseline="text-before-edge">website + devices (smart watch)</text></g><g stroke-linecap="round"><g transform="translate(242.799615479657 320) rotate(0 63.10281911492348 22.486403243723316)"><path d="M-0.79 -0.28 C20.48 7.3, 105.59 38.88, 127 46.44 M1 -1.47 C22.16 6.26, 105.01 36.66, 126.05 44.55" stroke="#1e1e1e" stroke-width="1" fill="none"></path></g><g transform="translate(242.799615479657 320) rotate(0 63.10281911492348 22.486403243723316)"><path d="M95.59 44.37 C104.22 45.68, 109.36 45.31, 124.71 43.67 M96.09 44.39 C104.35 43.32, 112.72 44.25, 126.39 44.44" stroke="#1e1e1e" stroke-width="1" fill="none"></path></g><g transform="translate(242.799615479657 320) rotate(0 63.10281911492348 22.486403243723316)"><path d="M102.71 25.13 C109.74 31.16, 113.11 35.57, 124.71 43.67 M103.22 25.14 C109.48 29.38, 115.91 35.54, 126.39 44.44" stroke="#1e1e1e" stroke-width="1" fill="none"></path></g></g><mask></mask><g stroke-linecap="round" transform="translate(375.1654354811804 362.77024667022) rotate(0 18.63417999847718 34.78380266382396)"><path d="M0 0 C0 0, 0 0, 0 0 M0 0 C0 0, 0 0, 0 0 M0.13 12.04 C3.5 8.16, 6.88 4.28, 10.63 -0.03 M0.13 12.04 C3.31 8.39, 6.49 4.73, 10.63 -0.03 M0.27 24.08 C4.56 19.14, 8.86 14.19, 21.26 -0.07 M0.27 24.08 C4.64 19.05, 9.01 14.02, 21.26 -0.07 M-0.26 36.88 C8.65 26.63, 17.55 16.39, 31.89 -0.1 M-0.26 36.88 C12.19 22.56, 24.63 8.25, 31.89 -0.1 M-0.12 48.92 C10.89 36.24, 21.91 23.57, 39.9 2.88 M-0.12 48.92 C8.8 38.65, 17.73 28.38, 39.9 2.88 M0.01 60.96 C12.3 46.83, 24.58 32.69, 40.03 14.92 M0.01 60.96 C12.21 46.92, 24.42 32.88, 40.03 14.92 M1.45 71.49 C13.06 58.14, 24.67 44.78, 40.16 26.96 M1.45 71.49 C16.01 54.75, 30.56 38, 40.16 26.96 M12.09 71.46 C19.2 63.27, 26.31 55.09, 40.3 39 M12.09 71.46 C20.1 62.23, 28.12 53.01, 40.3 39 M22.72 71.42 C27.71 65.67, 32.71 59.93, 40.43 51.04 M22.72 71.42 C28.6 64.65, 34.48 57.88, 40.43 51.04 M33.35 71.39 C35.17 69.29, 37 67.18, 39.91 63.84 M33.35 71.39 C34.84 69.67, 36.33 67.95, 39.91 63.84 M0.27 69.8 C0.27 69.8, 0.27 69.8, 0.27 69.8 M0.27 69.8 C0.27 69.8, 0.27 69.8, 0.27 69.8 M12.31 69.67 C8.97 66.76, 5.62 63.86, 0.24 59.17 M12.31 69.67 C8.54 66.39, 4.77 63.11, 0.24 59.17 M24.35 69.54 C15.7 62.02, 7.05 54.5, 0.2 48.54 M24.35 69.54 C17.34 63.44, 10.32 57.34, 0.2 48.54 M36.39 69.4 C26.84 61.1, 17.29 52.79, 0.17 37.91 M36.39 69.4 C22.19 57.06, 7.99 44.71, 0.17 37.91 M42.4 64.02 C30.39 53.59, 18.39 43.15, 0.13 27.28 M42.4 64.02 C25.58 49.4, 8.76 34.78, 0.13 27.28 M42.36 53.39 C26.32 39.44, 10.27 25.49, 0.1 16.65 M42.36 53.39 C25.72 38.93, 9.08 24.46, 0.1 16.65 M42.33 42.76 C32.54 34.25, 22.75 25.75, 0.06 6.02 M42.33 42.76 C28.82 31.02, 15.31 19.27, 0.06 6.02 M42.29 32.13 C30.66 22.02, 19.02 11.9, 2.29 -2.64 M42.29 32.13 C29.47 20.99, 16.65 9.84, 2.29 -2.64 M42.26 21.5 C35.86 15.94, 29.46 10.37, 14.33 -2.77 M42.26 21.5 C34 14.32, 25.74 7.14, 14.33 -2.77 M42.22 10.87 C36.07 5.52, 29.91 0.17, 26.38 -2.91 M42.22 10.87 C38.26 7.43, 34.3 3.99, 26.38 -2.91" stroke="#ced4da" stroke-width="1" fill="none"></path><path d="M0 0 C13.3 0, 26.61 0, 37.27 0 M0 0 C9.86 0, 19.72 0, 37.27 0 M37.27 0 C37.27 20.38, 37.27 40.76, 37.27 69.57 M37.27 0 C37.27 20.78, 37.27 41.56, 37.27 69.57 M37.27 69.57 C24.72 69.57, 12.18 69.57, 0 69.57 M37.27 69.57 C25.84 69.57, 14.41 69.57, 0 69.57 M0 69.57 C0 47.06, 0 24.56, 0 0 M0 69.57 C0 48.76, 0 27.95, 0 0" stroke="#000000" stroke-width="2" fill="none"></path></g><g transform="translate(362.299615479657 442.22975332978) rotate(0 74.98999786376953 12.5)"><text x="0" y="0" font-family="Virgil, Segoe UI Emoji" font-size="20px" fill="#000000" text-anchor="start" style="white-space: pre;" direction="ltr" dominant-baseline="text-before-edge">PHP REST API</text></g><g stroke-linecap="round"><g transform="translate(379.6499928143108 370.4661973361757) rotate(0 14.286204665499099 1.1368683772161603e-13)"><path d="M0 0 C4.76 0, 23.81 0, 28.57 0 M0 0 C4.76 0, 23.81 0, 28.57 0" stroke="#000000" stroke-width="2" fill="none"></path></g></g><mask></mask><g stroke-linecap="round"><g transform="translate(379.5134108141579 376.86999511378406) rotate(0 14.286204665499099 1.1368683772161603e-13)"><path d="M0 0 C4.76 0, 23.81 0, 28.57 0 M0 0 C4.76 0, 23.81 0, 28.57 0" stroke="#000000" stroke-width="2" fill="none"></path></g></g><mask></mask><g stroke-linecap="round"><g transform="translate(379.4825254804187 383.2737928913933) rotate(0 14.286204665499099 1.1368683772161603e-13)"><path d="M0 0 C4.76 0, 23.81 0, 28.57 0 M0 0 C4.76 0, 23.81 0, 28.57 0" stroke="#000000" stroke-width="2" fill="none"></path></g></g><mask></mask><g stroke-linecap="round"><g transform="translate(379.4825254804187 389.67759066900214) rotate(0 14.286204665499099 1.1368683772161603e-13)"><path d="M0 0 C4.76 0, 23.81 0, 28.57 0 M0 0 C4.76 0, 23.81 0, 28.57 0" stroke="#000000" stroke-width="2" fill="none"></path></g></g><mask></mask><g stroke-linecap="round"><g transform="translate(418.799615479657 383.72454197960377) rotate(0 102.20179220233581 -26.060872039252104)"><path d="M0.13 -0.55 C34.34 -9.44, 171.48 -45.1, 205.67 -53.9 M-1.26 1.77 C32.73 -6.96, 169.71 -43.96, 204.54 -52.97" stroke="#1e1e1e" stroke-width="1" fill="none"></path></g><g transform="translate(418.799615479657 383.72454197960377) rotate(0 102.20179220233581 -26.060872039252104)"><path d="M179 -36.39 C186.25 -42.84, 195.4 -46.93, 206.11 -53.49 M180.74 -35.2 C185.4 -39.21, 191.68 -43.47, 204.14 -52.22" stroke="#1e1e1e" stroke-width="1" fill="none"></path></g><g transform="translate(418.799615479657 383.72454197960377) rotate(0 102.20179220233581 -26.060872039252104)"><path d="M173.75 -56.23 C182.65 -56.08, 193.55 -53.57, 206.11 -53.49 M175.48 -55.03 C181.38 -54.08, 188.97 -53.4, 204.14 -52.22" stroke="#1e1e1e" stroke-width="1" fill="none"></path></g></g><mask></mask><g transform="translate(23.299615479657575 304.12992166716845) rotate(0 28.5 12.5)"><text x="0" y="0" font-family="Virgil, Segoe UI Emoji" font-size="20px" fill="#000000" text-anchor="start" style="white-space: pre;" direction="ltr" dominant-baseline="text-before-edge">Users</text></g><g stroke-linecap="round" transform="translate(63.74243241887626 236.87007833283155) rotate(0 9.875171816384778 8.640775339336713)"><path d="M2.19 3.23 C2.19 3.23, 2.19 3.23, 2.19 3.23 M2.19 3.23 C2.19 3.23, 2.19 3.23, 2.19 3.23 M2.98 14.51 C5.22 11.93, 7.47 9.34, 14.13 1.68 M2.98 14.51 C6.41 10.56, 9.85 6.61, 14.13 1.68 M10.33 18.25 C12.53 15.72, 14.72 13.19, 19.51 7.69 M10.33 18.25 C12.58 15.66, 14.83 13.07, 19.51 7.69 M3.77 15.47 C3.77 15.47, 3.77 15.47, 3.77 15.47 M3.77 15.47 C3.77 15.47, 3.77 15.47, 3.77 15.47 M15.81 15.34 C10.68 10.88, 5.54 6.41, 2.23 3.53 M15.81 15.34 C12.91 12.82, 10.01 10.29, 2.23 3.53 M20.31 8.65 C16.89 5.68, 13.47 2.7, 9.74 -0.54 M20.31 8.65 C18.01 6.65, 15.71 4.65, 9.74 -0.54" stroke="#ced4da" stroke-width="1" fill="none"></path><path d="M19.75 8.64 C19.75 9.14, 19.7 9.65, 19.6 10.14 C19.5 10.63, 19.35 11.13, 19.15 11.6 C18.96 12.07, 18.71 12.53, 18.43 12.96 C18.14 13.39, 17.81 13.81, 17.44 14.19 C17.07 14.58, 16.66 14.94, 16.22 15.26 C15.78 15.58, 15.31 15.87, 14.81 16.12 C14.32 16.37, 13.79 16.59, 13.25 16.76 C12.72 16.93, 12.15 17.06, 11.59 17.15 C11.03 17.24, 10.45 17.28, 9.88 17.28 C9.3 17.28, 8.72 17.24, 8.16 17.15 C7.6 17.06, 7.03 16.93, 6.5 16.76 C5.96 16.59, 5.43 16.37, 4.94 16.12 C4.44 15.87, 3.97 15.58, 3.53 15.26 C3.09 14.94, 2.68 14.58, 2.31 14.19 C1.94 13.81, 1.61 13.39, 1.32 12.96 C1.04 12.53, 0.79 12.07, 0.6 11.6 C0.4 11.13, 0.25 10.63, 0.15 10.14 C0.05 9.65, 0 9.14, 0 8.64 C0 8.14, 0.05 7.63, 0.15 7.14 C0.25 6.65, 0.4 6.16, 0.6 5.69 C0.79 5.22, 1.04 4.75, 1.32 4.32 C1.61 3.89, 1.94 3.47, 2.31 3.09 C2.68 2.7, 3.09 2.34, 3.53 2.02 C3.97 1.7, 4.44 1.41, 4.94 1.16 C5.43 0.91, 5.96 0.69, 6.5 0.52 C7.03 0.35, 7.6 0.22, 8.16 0.13 C8.72 0.04, 9.3 0, 9.88 0 C10.45 0, 11.03 0.04, 11.59 0.13 C12.15 0.22, 12.72 0.35, 13.25 0.52 C13.79 0.69, 14.32 0.91, 14.81 1.16 C15.31 1.41, 15.78 1.7, 16.22 2.02 C16.66 2.34, 17.07 2.7, 17.44 3.09 C17.81 3.47, 18.14 3.89, 18.43 4.32 C18.71 4.75, 18.96 5.22, 19.15 5.69 C19.35 6.16, 19.5 6.65, 19.6 7.14 C19.7 7.63, 19.73 8.39, 19.75 8.64 C19.78 8.89, 19.78 8.39, 19.75 8.64" stroke="#000000" stroke-width="2" fill="none"></path></g><g stroke-linecap="round" transform="translate(20.558758294554963 237.45314611646563) rotate(0 9.875171816384793 8.640775339336713)"><path d="M2.19 3.23 C2.19 3.23, 2.19 3.23, 2.19 3.23 M2.19 3.23 C2.19 3.23, 2.19 3.23, 2.19 3.23 M2.98 14.51 C6.72 10.21, 10.46 5.9, 14.13 1.68 M2.98 14.51 C6.2 10.81, 9.42 7.1, 14.13 1.68 M10.33 18.25 C12.27 16.02, 14.21 13.78, 19.51 7.69 M10.33 18.25 C12.76 15.45, 15.19 12.66, 19.51 7.69 M3.77 15.47 C3.77 15.47, 3.77 15.47, 3.77 15.47 M3.77 15.47 C3.77 15.47, 3.77 15.47, 3.77 15.47 M15.81 15.34 C12.04 12.06, 8.26 8.77, 2.23 3.53 M15.81 15.34 C10.73 10.92, 5.65 6.5, 2.23 3.53 M20.31 8.65 C17.3 6.03, 14.28 3.41, 9.74 -0.54 M20.31 8.65 C16.52 5.35, 12.73 2.06, 9.74 -0.54" stroke="#ced4da" stroke-width="1" fill="none"></path><path d="M19.75 8.64 C19.75 9.14, 19.7 9.65, 19.6 10.14 C19.5 10.63, 19.35 11.13, 19.15 11.6 C18.96 12.07, 18.71 12.53, 18.43 12.96 C18.14 13.39, 17.81 13.81, 17.44 14.19 C17.07 14.58, 16.66 14.94, 16.22 15.26 C15.78 15.58, 15.31 15.87, 14.81 16.12 C14.32 16.37, 13.79 16.59, 13.25 16.76 C12.72 16.93, 12.15 17.06, 11.59 17.15 C11.03 17.24, 10.45 17.28, 9.88 17.28 C9.3 17.28, 8.72 17.24, 8.16 17.15 C7.6 17.06, 7.03 16.93, 6.5 16.76 C5.96 16.59, 5.43 16.37, 4.94 16.12 C4.44 15.87, 3.97 15.58, 3.53 15.26 C3.09 14.94, 2.68 14.58, 2.31 14.19 C1.94 13.81, 1.61 13.39, 1.32 12.96 C1.04 12.53, 0.79 12.07, 0.6 11.6 C0.4 11.13, 0.25 10.63, 0.15 10.14 C0.05 9.65, 0 9.14, 0 8.64 C0 8.14, 0.05 7.63, 0.15 7.14 C0.25 6.65, 0.4 6.16, 0.6 5.69 C0.79 5.22, 1.04 4.75, 1.32 4.32 C1.61 3.89, 1.94 3.47, 2.31 3.09 C2.68 2.7, 3.09 2.34, 3.53 2.02 C3.97 1.7, 4.44 1.41, 4.94 1.16 C5.43 0.91, 5.96 0.69, 6.5 0.52 C7.03 0.35, 7.6 0.22, 8.16 0.13 C8.72 0.04, 9.3 0, 9.88 0 C10.45 0, 11.03 0.04, 11.59 0.13 C12.15 0.22, 12.72 0.35, 13.25 0.52 C13.79 0.69, 14.32 0.91, 14.81 1.16 C15.31 1.41, 15.78 1.7, 16.22 2.02 C16.66 2.34, 17.07 2.7, 17.44 3.09 C17.81 3.47, 18.14 3.89, 18.43 4.32 C18.71 4.75, 18.96 5.22, 19.15 5.69 C19.35 6.16, 19.5 6.65, 19.6 7.14 C19.7 7.63, 19.73 8.39, 19.75 8.64 C19.78 8.89, 19.78 8.39, 19.75 8.64" stroke="#000000" stroke-width="2" fill="none"></path></g><g stroke-linecap="round"><g transform="translate(31.01057830181918 296.38418185411524) rotate(0 21.90843989373377 -18.49404842519118)" fill-rule="evenodd"><path d="M11.93 -33.36 C11.93 -33.36, 11.93 -33.36, 11.93 -33.36 M11.93 -33.36 C11.93 -33.36, 11.93 -33.36, 11.93 -33.36 M6.81 -15.28 C10.7 -19.75, 14.58 -24.22, 25.18 -36.41 M6.81 -15.28 C11.06 -20.17, 15.31 -25.06, 25.18 -36.41 M2.35 2.04 C10.63 -7.48, 18.92 -17.01, 31.87 -31.92 M2.35 2.04 C10.27 -7.06, 18.18 -16.17, 31.87 -31.92 M12.98 2.01 C19.1 -5.03, 25.21 -12.06, 37.25 -25.92 M12.98 2.01 C18.34 -4.15, 23.7 -10.32, 37.25 -25.92 M23.61 1.97 C28.05 -3.13, 32.49 -8.24, 41.32 -18.4 M23.61 1.97 C28.67 -3.84, 33.73 -9.66, 41.32 -18.4 M34.9 1.19 C39.04 -3.58, 43.18 -8.34, 46.05 -11.64 M34.9 1.19 C37.84 -2.2, 40.78 -5.59, 46.05 -11.64 M0 0 C0 0, 0 0, 0 0 M0 0 C0 0, 0 0, 0 0 M12.04 -0.13 C8.76 -2.98, 5.48 -5.83, 1.47 -9.32 M12.04 -0.13 C8.99 -2.78, 5.94 -5.43, 1.47 -9.32 M24.08 -0.27 C19.43 -4.31, 14.78 -8.35, 2.95 -18.64 M24.08 -0.27 C17.51 -5.97, 10.95 -11.68, 2.95 -18.64 M34.61 -1.71 C25 -10.07, 15.39 -18.42, 5.93 -26.64 M34.61 -1.71 C26.08 -9.13, 17.54 -16.56, 5.93 -26.64 M43.64 -4.47 C32.22 -14.39, 20.8 -24.32, 11.18 -32.68 M43.64 -4.47 C33.12 -13.61, 22.61 -22.75, 11.18 -32.68 M42.85 -15.76 C36.76 -21.04, 30.68 -26.33, 17.19 -38.06 M42.85 -15.76 C33.38 -23.98, 23.91 -32.21, 17.19 -38.06" stroke="#ced4da" stroke-width="1" fill="none"></path><path d="M0 0 C0.78 -4.11, 1.34 -18.46, 4.68 -24.67 C8.03 -30.87, 14.94 -36.78, 20.07 -37.23 C25.2 -37.68, 31.83 -33.14, 35.45 -27.36 C39.07 -21.58, 47.71 -7.12, 41.81 -2.56 C35.9 2, 6.97 -0.43, 0 0 M0 0 C0.78 -4.11, 1.34 -18.46, 4.68 -24.67 C8.03 -30.87, 14.94 -36.78, 20.07 -37.23 C25.2 -37.68, 31.83 -33.14, 35.45 -27.36 C39.07 -21.58, 47.71 -7.12, 41.81 -2.56 C35.9 2, 6.97 -0.43, 0 0" stroke="#000000" stroke-width="2" fill="none"></path></g></g><mask></mask><g stroke-linecap="round" transform="translate(41.496700452628744 239.8096705342782) rotate(0 10.702336545928873 9.3645444776878)"><path d="M2.43 3.43 C2.43 3.43, 2.43 3.43, 2.43 3.43 M2.43 3.43 C2.43 3.43, 2.43 3.43, 2.43 3.43 M2.56 15.48 C6.19 11.29, 9.83 7.11, 15.02 1.14 M2.56 15.48 C7.42 9.89, 12.28 4.3, 15.02 1.14 M9.91 19.21 C13.07 15.58, 16.22 11.95, 21.06 6.38 M9.91 19.21 C14.35 14.1, 18.8 8.99, 21.06 6.38 M4.02 16.71 C4.02 16.71, 4.02 16.71, 4.02 16.71 M4.02 16.71 C4.02 16.71, 4.02 16.71, 4.02 16.71 M16.82 17.23 C12.61 13.58, 8.4 9.92, 1.72 4.11 M16.82 17.23 C12.59 13.56, 8.37 9.89, 1.72 4.11 M21.31 10.54 C17.16 6.94, 13.02 3.33, 9.24 0.04 M21.31 10.54 C18.18 7.82, 15.05 5.09, 9.24 0.04" stroke="#ced4da" stroke-width="1" fill="none"></path><path d="M21.4 9.36 C21.4 9.91, 21.35 10.46, 21.24 10.99 C21.13 11.52, 20.97 12.06, 20.76 12.57 C20.55 13.08, 20.28 13.58, 19.97 14.05 C19.66 14.52, 19.3 14.97, 18.9 15.38 C18.5 15.8, 18.06 16.19, 17.58 16.54 C17.11 16.89, 16.59 17.2, 16.05 17.47 C15.52 17.75, 14.94 17.98, 14.36 18.16 C13.78 18.35, 13.17 18.49, 12.56 18.59 C11.95 18.68, 11.32 18.73, 10.7 18.73 C10.08 18.73, 9.45 18.68, 8.84 18.59 C8.23 18.49, 7.62 18.35, 7.04 18.16 C6.46 17.98, 5.89 17.75, 5.35 17.47 C4.81 17.2, 4.3 16.89, 3.82 16.54 C3.35 16.19, 2.9 15.8, 2.5 15.38 C2.11 14.97, 1.74 14.52, 1.43 14.05 C1.12 13.58, 0.86 13.08, 0.65 12.57 C0.43 12.06, 0.27 11.52, 0.16 10.99 C0.06 10.46, 0 9.91, 0 9.36 C0 8.82, 0.06 8.27, 0.16 7.74 C0.27 7.2, 0.43 6.67, 0.65 6.16 C0.86 5.65, 1.12 5.15, 1.43 4.68 C1.74 4.21, 2.11 3.76, 2.5 3.35 C2.9 2.93, 3.35 2.54, 3.82 2.19 C4.3 1.84, 4.81 1.53, 5.35 1.25 C5.89 0.98, 6.46 0.75, 7.04 0.56 C7.62 0.38, 8.23 0.24, 8.84 0.14 C9.45 0.05, 10.08 0, 10.7 0 C11.32 0, 11.95 0.05, 12.56 0.14 C13.17 0.24, 13.78 0.38, 14.36 0.56 C14.94 0.75, 15.52 0.98, 16.05 1.25 C16.59 1.53, 17.11 1.84, 17.58 2.19 C18.06 2.54, 18.5 2.93, 18.9 3.35 C19.3 3.76, 19.66 4.21, 19.97 4.68 C20.28 5.15, 20.55 5.65, 20.76 6.16 C20.97 6.67, 21.13 7.2, 21.24 7.74 C21.35 8.27, 21.38 9.09, 21.4 9.36 C21.43 9.64, 21.43 9.09, 21.4 9.36" stroke="#000000" stroke-width="2" fill="none"></path></g><g stroke-linecap="round"><g transform="translate(60.1619137562696 262.7151171690623) rotate(0 16.71865860152218 9.921154001040179)" fill-rule="evenodd"><path d="M0 0 C0 0, 0 0, 0 0 M0 0 C0 0, 0 0, 0 0 M6.04 5.25 C9.61 1.13, 13.19 -2.98, 17.85 -8.34 M6.04 5.25 C10.05 0.63, 14.06 -3.98, 17.85 -8.34 M12.08 10.5 C16.58 5.32, 21.08 0.13, 25.2 -4.6 M12.08 10.5 C16.23 5.72, 20.38 0.94, 25.2 -4.6 M15.49 18.76 C20.33 13.2, 25.17 7.63, 31.23 0.65 M15.49 18.76 C18.64 15.14, 21.8 11.51, 31.23 0.65 M16.93 29.3 C21.76 23.74, 26.59 18.18, 33.34 10.43 M16.93 29.3 C20.42 25.28, 23.91 21.27, 33.34 10.43 M29.53 27 C31.5 24.73, 33.47 22.47, 34.78 20.96 M29.53 27 C31.53 24.7, 33.52 22.41, 34.78 20.96 M14.43 27.6 C14.43 27.6, 14.43 27.6, 14.43 27.6 M14.43 27.6 C14.43 27.6, 14.43 27.6, 14.43 27.6 M25.72 26.82 C23.48 24.87, 21.25 22.93, 16.66 18.94 M25.72 26.82 C23.84 25.18, 21.96 23.55, 16.66 18.94 M33.98 23.4 C25.33 15.88, 16.68 8.36, 3.04 -3.5 M33.98 23.4 C24.92 15.53, 15.86 7.65, 3.04 -3.5 M36.97 15.4 C26.4 6.21, 15.84 -2.97, 9.8 -8.22 M36.97 15.4 C29.24 8.68, 21.51 1.96, 9.8 -8.22" stroke="#ced4da" stroke-width="1" fill="none"></path><path d="M0 0 C0.86 -0.93, 3.58 -4.18, 5.17 -5.57 C6.77 -6.97, 7.56 -7.83, 9.55 -8.36 C11.54 -8.89, 14.99 -8.89, 17.12 -8.76 C19.24 -8.62, 20.83 -8.43, 22.29 -7.56 C23.75 -6.7, 24.88 -5.11, 25.87 -3.58 C26.87 -2.06, 27.47 -0.33, 28.26 1.59 C29.06 3.52, 29.92 5.84, 30.65 7.96 C31.38 10.08, 32.18 12.41, 32.64 14.33 C33.11 16.25, 33.44 17.78, 33.44 19.51 C33.44 21.23, 33.3 23.42, 32.64 24.68 C31.98 25.94, 30.72 26.47, 29.46 27.07 C28.2 27.67, 26.87 28, 25.08 28.26 C23.29 28.53, 20.43 28.73, 18.71 28.66 C16.98 28.59, 15.46 28.93, 14.73 27.86 C14 26.8, 14.66 23.82, 14.33 22.29 C14 20.77, 13.47 20.23, 12.74 18.71 C12.01 17.18, 11.08 15.33, 9.95 13.14 C8.82 10.95, 7.63 7.76, 5.97 5.57 C4.31 3.38, 1 0.93, 0 0 M0 0 C0.86 -0.93, 3.58 -4.18, 5.17 -5.57 C6.77 -6.97, 7.56 -7.83, 9.55 -8.36 C11.54 -8.89, 14.99 -8.89, 17.12 -8.76 C19.24 -8.62, 20.83 -8.43, 22.29 -7.56 C23.75 -6.7, 24.88 -5.11, 25.87 -3.58 C26.87 -2.06, 27.47 -0.33, 28.26 1.59 C29.06 3.52, 29.92 5.84, 30.65 7.96 C31.38 10.08, 32.18 12.41, 32.64 14.33 C33.11 16.25, 33.44 17.78, 33.44 19.51 C33.44 21.23, 33.3 23.42, 32.64 24.68 C31.98 25.94, 30.72 26.47, 29.46 27.07 C28.2 27.67, 26.87 28, 25.08 28.26 C23.29 28.53, 20.43 28.73, 18.71 28.66 C16.98 28.59, 15.46 28.93, 14.73 27.86 C14 26.8, 14.66 23.82, 14.33 22.29 C14 20.77, 13.47 20.23, 12.74 18.71 C12.01 17.18, 11.08 15.33, 9.95 13.14 C8.82 10.95, 7.63 7.76, 5.97 5.57 C4.31 3.38, 1 0.93, 0 0" stroke="#000000" stroke-width="2" fill="none"></path></g></g><mask></mask><g stroke-linecap="round"><g transform="translate(42.243127302935676 262.7032412656579) rotate(0 -16.121563651467838 12.193947400441957)" fill-rule="evenodd"><path d="M-24.42 -2.68 C-24.42 -2.68, -24.42 -2.68, -24.42 -2.68 M-24.42 -2.68 C-24.42 -2.68, -24.42 -2.68, -24.42 -2.68 M-26.26 11.62 C-22.05 6.78, -17.85 1.94, -12.48 -4.23 M-26.26 11.62 C-22.08 6.82, -17.9 2.01, -12.48 -4.23 M-29.41 27.44 C-21.91 18.81, -14.41 10.18, -2.51 -3.51 M-29.41 27.44 C-21.88 18.78, -14.35 10.11, -2.51 -3.51 M-22.71 31.93 C-17.76 26.23, -12.8 20.52, -8.28 15.33 M-22.71 31.93 C-18.97 27.62, -15.22 23.32, -8.28 15.33 M-12.74 32.65 C-12.13 31.95, -11.52 31.25, -10.77 30.39 M-12.74 32.65 C-12.19 32.02, -11.65 31.4, -10.77 30.39 M-31.63 25.72 C-31.63 25.72, -31.63 25.72, -31.63 25.72 M-31.63 25.72 C-31.63 25.72, -31.63 25.72, -31.63 25.72 M-13.55 30.83 C-17.4 27.48, -21.25 24.14, -29.4 17.05 M-13.55 30.83 C-19.79 25.41, -26.02 19.99, -29.4 17.05 M-6.79 26.11 C-11.69 21.85, -16.59 17.59, -27.92 7.74 M-6.79 26.11 C-11.78 21.77, -16.77 17.43, -27.92 7.74 M-8.34 14.16 C-12.79 10.29, -17.24 6.42, -24.94 -0.27 M-8.34 14.16 C-13.42 9.75, -18.5 5.33, -24.94 -0.27 M-4.6 6.81 C-8.78 3.17, -12.97 -0.46, -20.45 -6.96 M-4.6 6.81 C-7.96 3.89, -11.32 0.97, -20.45 -6.96 M-0.1 0.12 C-3.98 -3.25, -7.85 -6.62, -12.93 -11.03 M-0.1 0.12 C-4.82 -3.98, -9.54 -8.08, -12.93 -11.03" stroke="#ced4da" stroke-width="1" fill="none"></path><path d="M0 0 C-0.66 -0.73, -2.59 -3.18, -3.98 -4.38 C-5.37 -5.57, -6.37 -6.63, -8.36 -7.17 C-10.35 -7.7, -13.8 -7.7, -15.92 -7.56 C-18.05 -7.43, -19.64 -7.23, -21.1 -6.37 C-22.56 -5.51, -23.68 -3.91, -24.68 -2.39 C-25.68 -0.86, -26.27 0.86, -27.07 2.79 C-27.86 4.71, -28.73 7.03, -29.46 9.16 C-30.19 11.28, -30.98 13.6, -31.45 15.52 C-31.91 17.45, -32.24 18.97, -32.24 20.7 C-32.24 22.42, -32.11 24.61, -31.45 25.87 C-30.78 27.13, -29.46 27.53, -28.26 28.26 C-27.07 28.99, -26.01 29.72, -24.28 30.25 C-22.56 30.78, -20.1 31.25, -17.91 31.45 C-15.72 31.65, -12.41 32.64, -11.15 31.45 C-9.89 30.25, -10.62 26.07, -10.35 24.28 C-10.08 22.49, -9.89 22.29, -9.55 20.7 C-9.22 19.11, -9.16 17.05, -8.36 14.73 C-7.56 12.41, -6.17 9.22, -4.78 6.77 C-3.38 4.31, -0.8 1.13, 0 0 M0 0 C-0.66 -0.73, -2.59 -3.18, -3.98 -4.38 C-5.37 -5.57, -6.37 -6.63, -8.36 -7.17 C-10.35 -7.7, -13.8 -7.7, -15.92 -7.56 C-18.05 -7.43, -19.64 -7.23, -21.1 -6.37 C-22.56 -5.51, -23.68 -3.91, -24.68 -2.39 C-25.68 -0.86, -26.27 0.86, -27.07 2.79 C-27.86 4.71, -28.73 7.03, -29.46 9.16 C-30.19 11.28, -30.98 13.6, -31.45 15.52 C-31.91 17.45, -32.24 18.97, -32.24 20.7 C-32.24 22.42, -32.11 24.61, -31.45 25.87 C-30.78 27.13, -29.46 27.53, -28.26 28.26 C-27.07 28.99, -26.01 29.72, -24.28 30.25 C-22.56 30.78, -20.1 31.25, -17.91 31.45 C-15.72 31.65, -12.41 32.64, -11.15 31.45 C-9.89 30.25, -10.62 26.07, -10.35 24.28 C-10.08 22.49, -9.89 22.29, -9.55 20.7 C-9.22 19.11, -9.16 17.05, -8.36 14.73 C-7.56 12.41, -6.17 9.22, -4.78 6.77 C-3.38 4.31, -0.8 1.13, 0 0" stroke="#000000" stroke-width="2" fill="none"></path></g></g><mask></mask><g stroke-linecap="round"><g transform="translate(78.799615479657 283) rotate(0 54.96673916546942 7.618519711919731)"><path d="M-0.33 -1.06 C18.03 1.39, 92.01 12.09, 110.26 14.93 M1.7 1 C19.95 3.6, 91.95 14.13, 109.7 16.29" stroke="#1e1e1e" stroke-width="1" fill="none"></path></g><g transform="translate(78.799615479657 283) rotate(0 54.96673916546942 7.618519711919731)"><path d="M78.63 23.91 C88.97 20.21, 99.84 17.59, 109.81 14.3 M79.4 23.43 C91.67 19.64, 102.72 18.58, 109.62 16.63" stroke="#1e1e1e" stroke-width="1" fill="none"></path></g><g transform="translate(78.799615479657 283) rotate(0 54.96673916546942 7.618519711919731)"><path d="M81.39 3.58 C90.92 6.2, 100.93 9.92, 109.81 14.3 M82.17 3.1 C93.46 6.9, 103.48 13.43, 109.62 16.63" stroke="#1e1e1e" stroke-width="1" fill="none"></path></g></g><mask></mask><g transform="translate(598.799615479657 261) rotate(0 85.91000366210938 12.5)"><text x="0" y="0" font-family="Virgil, Segoe UI Emoji" font-size="20px" fill="#1e1e1e" text-anchor="start" style="white-space: pre;" direction="ltr" dominant-baseline="text-before-edge">MySQL Database</text></g><g stroke-linecap="round" transform="translate(785.5690392971778 549.5003755542426) rotate(0 32.230576182478444 32.199712367130076)"><path d="M0 0 C0 0, 0 0, 0 0 M0 0 C0 0, 0 0, 0 0 M0.13 12.04 C3.57 8.09, 7.01 4.14, 10.63 -0.03 M0.13 12.04 C4.28 7.28, 8.42 2.51, 10.63 -0.03 M0.27 24.08 C8.54 14.57, 16.81 5.05, 21.26 -0.07 M0.27 24.08 C7.96 15.23, 15.66 6.38, 21.26 -0.07 M-0.26 36.88 C11.26 23.63, 22.77 10.39, 31.89 -0.1 M-0.26 36.88 C7.54 27.91, 15.33 18.94, 31.89 -0.1 M-0.12 48.92 C13.17 33.63, 26.46 18.34, 42.52 -0.14 M-0.12 48.92 C16.81 29.43, 33.75 9.95, 42.52 -0.14 M0.01 60.96 C10.69 48.68, 21.36 36.4, 53.15 -0.17 M0.01 60.96 C19.96 38.01, 39.92 15.05, 53.15 -0.17 M4.08 68.47 C26.59 42.58, 49.09 16.69, 63.78 -0.21 M4.08 68.47 C24.54 44.93, 45 21.39, 63.78 -0.21 M14.71 68.44 C33.76 46.52, 52.82 24.6, 69.82 5.04 M14.71 68.44 C33.15 47.23, 51.58 26.02, 69.82 5.04 M25.34 68.4 C39.51 52.1, 53.68 35.8, 69.95 17.08 M25.34 68.4 C39.03 52.66, 52.72 36.91, 69.95 17.08 M35.97 68.37 C48.18 54.32, 60.39 40.27, 70.08 29.12 M35.97 68.37 C49.13 53.23, 62.29 38.09, 70.08 29.12 M46.6 68.33 C54.55 59.19, 62.49 50.05, 70.22 41.16 M46.6 68.33 C54.11 59.7, 61.62 51.06, 70.22 41.16 M57.23 68.3 C60.69 64.32, 64.15 60.33, 69.69 53.96 M57.23 68.3 C61.22 63.71, 65.21 59.12, 69.69 53.96 M-0.19 64.24 C-0.19 64.24, -0.19 64.24, -0.19 64.24 M-0.19 64.24 C-0.19 64.24, -0.19 64.24, -0.19 64.24 M11.85 64.1 C9.19 61.79, 6.53 59.48, -0.22 53.61 M11.85 64.1 C8.79 61.44, 5.73 58.78, -0.22 53.61 M24.65 64.63 C14.83 56.09, 5.01 47.56, -0.26 42.98 M24.65 64.63 C19.16 59.86, 13.68 55.09, -0.26 42.98 M36.69 64.49 C22.78 52.41, 8.88 40.32, -0.29 32.35 M36.69 64.49 C28.28 57.19, 19.88 49.88, -0.29 32.35 M48.73 64.36 C38.25 55.25, 27.77 46.14, -0.33 21.72 M48.73 64.36 C29.43 47.59, 10.14 30.81, -0.33 21.72 M60.77 64.23 C47.94 53.07, 35.1 41.91, -0.36 11.09 M60.77 64.23 C48.11 53.22, 35.45 42.21, -0.36 11.09 M68.28 60.16 C49.8 44.09, 31.31 28.02, 0.36 1.11 M68.28 60.16 C42.64 37.86, 16.99 15.57, 0.36 1.11 M68.25 49.53 C51.61 35.07, 34.98 20.6, 4.85 -5.58 M68.25 49.53 C50.24 33.87, 32.22 18.21, 4.85 -5.58 M68.21 38.9 C50.38 23.4, 32.56 7.9, 16.89 -5.72 M68.21 38.9 C56.59 28.8, 44.97 18.69, 16.89 -5.72 M68.18 28.27 C54.5 16.37, 40.82 4.48, 28.93 -5.85 M68.18 28.27 C57.41 18.91, 46.64 9.54, 28.93 -5.85 M68.15 17.64 C60.43 10.93, 52.71 4.22, 41.73 -5.33 M68.15 17.64 C59.74 10.33, 51.33 3.02, 41.73 -5.33 M68.11 7.01 C62.96 2.53, 57.82 -1.94, 53.77 -5.46 M68.11 7.01 C63.54 3.03, 58.97 -0.94, 53.77 -5.46" stroke="#ced4da" stroke-width="1" fill="none"></path><path d="M0 0 C24.13 0, 48.26 0, 64.46 0 M0 0 C13.17 0, 26.35 0, 64.46 0 M64.46 0 C64.46 20.31, 64.46 40.62, 64.46 64.4 M64.46 0 C64.46 13.85, 64.46 27.7, 64.46 64.4 M64.46 64.4 C47.34 64.4, 30.23 64.4, 0 64.4 M64.46 64.4 C47.63 64.4, 30.79 64.4, 0 64.4 M0 64.4 C0 45.52, 0 26.64, 0 0 M0 64.4 C0 50.5, 0 36.6, 0 0" stroke="#000000" stroke-width="2" fill="none"></path></g><g stroke-linecap="round" transform="translate(791.8583640954962 555.8726039175477) rotate(0 25.94125138416007 25.94125138416001)"><path d="M51.88 25.94 C51.88 27.44, 51.75 28.97, 51.49 30.45 C51.23 31.92, 50.83 33.4, 50.32 34.81 C49.8 36.22, 49.16 37.61, 48.41 38.91 C47.66 40.21, 46.78 41.47, 45.81 42.62 C44.85 43.77, 43.77 44.85, 42.62 45.81 C41.47 46.78, 40.21 47.66, 38.91 48.41 C37.61 49.16, 36.22 49.8, 34.81 50.32 C33.4 50.83, 31.92 51.23, 30.45 51.49 C28.97 51.75, 27.44 51.88, 25.94 51.88 C24.44 51.88, 22.92 51.75, 21.44 51.49 C19.96 51.23, 18.48 50.83, 17.07 50.32 C15.66 49.8, 14.27 49.16, 12.97 48.41 C11.67 47.66, 10.42 46.78, 9.27 45.81 C8.12 44.85, 7.03 43.77, 6.07 42.62 C5.1 41.47, 4.23 40.21, 3.48 38.91 C2.72 37.61, 2.08 36.22, 1.56 34.81 C1.05 33.4, 0.65 31.92, 0.39 30.45 C0.13 28.97, 0 27.44, 0 25.94 C0 24.44, 0.13 22.92, 0.39 21.44 C0.65 19.96, 1.05 18.48, 1.56 17.07 C2.08 15.66, 2.72 14.27, 3.48 12.97 C4.23 11.67, 5.1 10.42, 6.07 9.27 C7.03 8.12, 8.12 7.03, 9.27 6.07 C10.42 5.1, 11.67 4.23, 12.97 3.48 C14.27 2.72, 15.66 2.08, 17.07 1.56 C18.48 1.05, 19.96 0.65, 21.44 0.39 C22.92 0.13, 24.44 0, 25.94 0 C27.44 0, 28.97 0.13, 30.45 0.39 C31.92 0.65, 33.4 1.05, 34.81 1.56 C36.22 2.08, 37.61 2.72, 38.91 3.48 C40.21 4.23, 41.47 5.1, 42.62 6.07 C43.77 7.03, 44.85 8.12, 45.81 9.27 C46.78 10.42, 47.66 11.67, 48.41 12.97 C49.16 14.27, 49.8 15.66, 50.32 17.07 C50.83 18.48, 51.23 19.96, 51.49 21.44 C51.75 22.92, 51.82 25.19, 51.88 25.94 C51.95 26.69, 51.95 25.19, 51.88 25.94" stroke="none" stroke-width="0" fill="#868e96"></path><path d="M51.88 25.94 C51.88 27.44, 51.75 28.97, 51.49 30.45 C51.23 31.92, 50.83 33.4, 50.32 34.81 C49.8 36.22, 49.16 37.61, 48.41 38.91 C47.66 40.21, 46.78 41.47, 45.81 42.62 C44.85 43.77, 43.77 44.85, 42.62 45.81 C41.47 46.78, 40.21 47.66, 38.91 48.41 C37.61 49.16, 36.22 49.8, 34.81 50.32 C33.4 50.83, 31.92 51.23, 30.45 51.49 C28.97 51.75, 27.44 51.88, 25.94 51.88 C24.44 51.88, 22.92 51.75, 21.44 51.49 C19.96 51.23, 18.48 50.83, 17.07 50.32 C15.66 49.8, 14.27 49.16, 12.97 48.41 C11.67 47.66, 10.42 46.78, 9.27 45.81 C8.12 44.85, 7.03 43.77, 6.07 42.62 C5.1 41.47, 4.23 40.21, 3.48 38.91 C2.72 37.61, 2.08 36.22, 1.56 34.81 C1.05 33.4, 0.65 31.92, 0.39 30.45 C0.13 28.97, 0 27.44, 0 25.94 C0 24.44, 0.13 22.92, 0.39 21.44 C0.65 19.96, 1.05 18.48, 1.56 17.07 C2.08 15.66, 2.72 14.27, 3.48 12.97 C4.23 11.67, 5.1 10.42, 6.07 9.27 C7.03 8.12, 8.12 7.03, 9.27 6.07 C10.42 5.1, 11.67 4.23, 12.97 3.48 C14.27 2.72, 15.66 2.08, 17.07 1.56 C18.48 1.05, 19.96 0.65, 21.44 0.39 C22.92 0.13, 24.44 0, 25.94 0 C27.44 0, 28.97 0.13, 30.45 0.39 C31.92 0.65, 33.4 1.05, 34.81 1.56 C36.22 2.08, 37.61 2.72, 38.91 3.48 C40.21 4.23, 41.47 5.1, 42.62 6.07 C43.77 7.03, 44.85 8.12, 45.81 9.27 C46.78 10.42, 47.66 11.67, 48.41 12.97 C49.16 14.27, 49.8 15.66, 50.32 17.07 C50.83 18.48, 51.23 19.96, 51.49 21.44 C51.75 22.92, 51.82 25.19, 51.88 25.94 C51.95 26.69, 51.95 25.19, 51.88 25.94" stroke="#000000" stroke-width="1" fill="none"></path></g><g stroke-linecap="round"><g transform="translate(807.6061280261824 566.2806545271061) rotate(0 8.100129918129767 15.742212464776742)" fill-rule="evenodd"><path d="M0 0 L2.52 0.89 L4.22 2.71 L6.54 1.95 L15.02 2.24 L18.74 -0.51 L19.28 3.57 L21.27 5.47 L22.15 10.91 L21.46 16.61 L19.44 18.82 L13.72 20.66 L14.62 20.72 L14.5 21.4 L3.39 27.04 L15.57 28.18 L16.38 29.77 L15.51 31.74 L6.34 31.74 L6.07 27.39 L1.58 28.04 L-1.03 26.54 L-2.66 23.92 L-5.95 21.18 L-3.63 21.4 L2.15 25.54 L4.66 25.23 L5.9 24.25 L6.02 22.72 L7.56 20.78 L1.14 18.9 L-0.46 16.57 L-1.65 10.96 L-0.7 5.69 L0.67 4.24 L0 0" stroke="none" stroke-width="0" fill="#fff" fill-rule="evenodd"></path><path d="M0 0 C0.42 0.15, 1.82 0.44, 2.52 0.89 C3.23 1.34, 3.55 2.53, 4.22 2.71 C4.89 2.89, 5.08 2.06, 6.54 1.95 C8 1.84, 11.59 1.99, 13 2.04 C14.42 2.09, 14.42 2.41, 15.02 2.24 C15.61 2.06, 15.96 1.45, 16.58 0.99 C17.2 0.54, 18.28 -0.6, 18.74 -0.51 C19.2 -0.42, 19.25 0.88, 19.34 1.56 C19.43 2.24, 18.96 2.92, 19.28 3.57 C19.6 4.22, 20.79 4.24, 21.27 5.47 C21.74 6.69, 22.12 9.05, 22.15 10.91 C22.19 12.77, 21.91 15.29, 21.46 16.61 C21.01 17.93, 20.23 18.26, 19.44 18.82 C18.64 19.39, 17.64 19.7, 16.69 20.01 C15.73 20.32, 14.08 20.43, 13.72 20.66 C13.35 20.9, 16.22 20.34, 14.5 21.4 C12.78 22.47, 3.21 25.91, 3.39 27.04 C3.57 28.17, 13.55 27.47, 15.57 28.18 C17.6 28.88, 15.7 30.68, 15.54 31.29 C15.37 31.89, 15.95 31.71, 14.57 31.82 C13.19 31.93, 8.61 32.08, 7.24 31.95 C5.87 31.82, 6.52 31.81, 6.32 31.05 C6.13 30.29, 6.39 27.92, 6.07 27.39 C5.74 26.86, 5.13 27.75, 4.38 27.86 C3.63 27.97, 2.48 28.26, 1.58 28.04 C0.68 27.82, -0.33 27.23, -1.03 26.54 C-1.74 25.86, -2.12 24.63, -2.66 23.92 C-3.19 23.22, -3.69 22.77, -4.24 22.31 C-4.79 21.86, -6.05 21.33, -5.95 21.18 C-5.85 21.03, -4.29 21.15, -3.63 21.4 C-2.97 21.65, -2.57 22.17, -1.98 22.67 C-1.4 23.18, -0.81 23.96, -0.12 24.44 C0.57 24.92, 1.35 25.41, 2.15 25.54 C2.94 25.67, 4.03 25.44, 4.66 25.23 C5.29 25.01, 5.68 24.67, 5.9 24.25 C6.13 23.83, 5.89 23.19, 6.02 22.72 C6.15 22.24, 6.43 21.7, 6.69 21.38 C6.95 21.06, 7.96 21.02, 7.56 20.78 C7.16 20.54, 5.35 20.25, 4.28 19.93 C3.21 19.62, 1.93 19.46, 1.14 18.9 C0.35 18.34, 0.01 17.89, -0.46 16.57 C-0.92 15.25, -1.61 12.78, -1.65 10.96 C-1.7 9.15, -1.09 6.81, -0.7 5.69 C-0.32 4.57, 0.57 4.81, 0.67 4.24 C0.76 3.67, -0.01 2.98, -0.12 2.28 C-0.23 1.57, -0.02 0.38, 0 0 M0 0 C0.42 0.15, 1.82 0.44, 2.52 0.89 C3.23 1.34, 3.55 2.53, 4.22 2.71 C4.89 2.89, 5.08 2.06, 6.54 1.95 C8 1.84, 11.59 1.99, 13 2.04 C14.42 2.09, 14.42 2.41, 15.02 2.24 C15.61 2.06, 15.96 1.45, 16.58 0.99 C17.2 0.54, 18.28 -0.6, 18.74 -0.51 C19.2 -0.42, 19.25 0.88, 19.34 1.56 C19.43 2.24, 18.96 2.92, 19.28 3.57 C19.6 4.22, 20.79 4.24, 21.27 5.47 C21.74 6.69, 22.12 9.05, 22.15 10.91 C22.19 12.77, 21.91 15.29, 21.46 16.61 C21.01 17.93, 20.23 18.26, 19.44 18.82 C18.64 19.39, 17.64 19.7, 16.69 20.01 C15.73 20.32, 14.08 20.43, 13.72 20.66 C13.35 20.9, 16.22 20.34, 14.5 21.4 C12.78 22.47, 3.21 25.91, 3.39 27.04 C3.57 28.17, 13.55 27.47, 15.57 28.18 C17.6 28.88, 15.7 30.68, 15.54 31.29 C15.37 31.89, 15.95 31.71, 14.57 31.82 C13.19 31.93, 8.61 32.08, 7.24 31.95 C5.87 31.82, 6.52 31.81, 6.32 31.05 C6.13 30.29, 6.39 27.92, 6.07 27.39 C5.74 26.86, 5.13 27.75, 4.38 27.86 C3.63 27.97, 2.48 28.26, 1.58 28.04 C0.68 27.82, -0.33 27.23, -1.03 26.54 C-1.74 25.86, -2.12 24.63, -2.66 23.92 C-3.19 23.22, -3.69 22.77, -4.24 22.31 C-4.79 21.86, -6.05 21.33, -5.95 21.18 C-5.85 21.03, -4.29 21.15, -3.63 21.4 C-2.97 21.65, -2.57 22.17, -1.98 22.67 C-1.4 23.18, -0.81 23.96, -0.12 24.44 C0.57 24.92, 1.35 25.41, 2.15 25.54 C2.94 25.67, 4.03 25.44, 4.66 25.23 C5.29 25.01, 5.68 24.67, 5.9 24.25 C6.13 23.83, 5.89 23.19, 6.02 22.72 C6.15 22.24, 6.43 21.7, 6.69 21.38 C6.95 21.06, 7.96 21.02, 7.56 20.78 C7.16 20.54, 5.35 20.25, 4.28 19.93 C3.21 19.62, 1.93 19.46, 1.14 18.9 C0.35 18.34, 0.01 17.89, -0.46 16.57 C-0.92 15.25, -1.61 12.78, -1.65 10.96 C-1.7 9.15, -1.09 6.81, -0.7 5.69 C-0.32 4.57, 0.57 4.81, 0.67 4.24 C0.76 3.67, -0.01 2.98, -0.12 2.28 C-0.23 1.57, -0.02 0.38, 0 0" stroke="#000000" stroke-width="1" fill="none"></path></g></g><mask></mask><g transform="translate(785.299615479657 619.4996244457574) rotate(0 80.93999481201172 25)"><text x="0" y="0" font-family="Virgil, Segoe UI Emoji" font-size="20px" fill="#000000" text-anchor="start" style="white-space: pre;" direction="ltr" dominant-baseline="text-before-edge">Source Code</text><text x="0" y="25" font-family="Virgil, Segoe UI Emoji" font-size="20px" fill="#000000" text-anchor="start" style="white-space: pre;" direction="ltr" dominant-baseline="text-before-edge">stored in GitHub</text></g><g stroke-linecap="round" transform="translate(655.89262259922 511.1883603609432) rotate(0 3.903820091937007 3.555802368026235)"><path d="M0.47 0.41 C0.47 0.41, 0.47 0.41, 0.47 0.41 M0.47 0.41 C0.47 0.41, 0.47 0.41, 0.47 0.41 M2.84 3.79 C3.16 3.41, 3.49 3.04, 4.15 2.28 M2.84 3.79 C3.23 3.33, 3.63 2.88, 4.15 2.28 M3.23 9.43 C4.45 8.03, 5.66 6.64, 9.14 2.64 M3.23 9.43 C5.04 7.35, 6.84 5.28, 9.14 2.64 M0.66 6.86 C0.66 6.86, 0.66 6.86, 0.66 6.86 M0.66 6.86 C0.66 6.86, 0.66 6.86, 0.66 6.86 M6.31 6.46 C4.76 5.12, 3.21 3.77, 0.27 1.21 M6.31 6.46 C4.25 4.68, 2.19 2.89, 0.27 1.21 M9.69 4.1 C7.57 2.26, 5.45 0.42, 2.89 -1.8 M9.69 4.1 C8.31 2.9, 6.93 1.7, 2.89 -1.8" stroke="#228be6" stroke-width="0.5" fill="none"></path><path d="M1.78 0 M1.78 0 C3.43 0, 5.08 0, 6.03 0 M1.78 0 C2.98 0, 4.17 0, 6.03 0 M6.03 0 C7.22 0, 7.81 0.59, 7.81 1.78 M6.03 0 C7.22 0, 7.81 0.59, 7.81 1.78 M7.81 1.78 C7.81 2.99, 7.81 4.21, 7.81 5.33 M7.81 1.78 C7.81 2.93, 7.81 4.08, 7.81 5.33 M7.81 5.33 C7.81 6.52, 7.22 7.11, 6.03 7.11 M7.81 5.33 C7.81 6.52, 7.22 7.11, 6.03 7.11 M6.03 7.11 C4.59 7.11, 3.15 7.11, 1.78 7.11 M6.03 7.11 C5.18 7.11, 4.32 7.11, 1.78 7.11 M1.78 7.11 C0.59 7.11, 0 6.52, 0 5.33 M1.78 7.11 C0.59 7.11, 0 6.52, 0 5.33 M0 5.33 C0 4.04, 0 2.76, 0 1.78 M0 5.33 C0 4.1, 0 2.87, 0 1.78 M0 1.78 C0 0.59, 0.59 0, 1.78 0 M0 1.78 C0 0.59, 0.59 0, 1.78 0" stroke="#228be6" stroke-width="1" fill="none"></path></g><g stroke-linecap="round" transform="translate(664.8199521660752 511.2942776542841) rotate(0 3.903820091937007 3.555802368026235)"><path d="M0.47 0.41 C0.47 0.41, 0.47 0.41, 0.47 0.41 M0.47 0.41 C0.47 0.41, 0.47 0.41, 0.47 0.41 M2.84 3.79 C3.11 3.47, 3.39 3.16, 4.15 2.28 M2.84 3.79 C3.12 3.46, 3.41 3.13, 4.15 2.28 M3.23 9.43 C4.65 7.8, 6.06 6.17, 9.14 2.64 M3.23 9.43 C4.82 7.61, 6.4 5.79, 9.14 2.64 M0.66 6.86 C0.66 6.86, 0.66 6.86, 0.66 6.86 M0.66 6.86 C0.66 6.86, 0.66 6.86, 0.66 6.86 M6.31 6.46 C4.15 4.59, 2 2.72, 0.27 1.21 M6.31 6.46 C4.52 4.91, 2.74 3.36, 0.27 1.21 M9.69 4.1 C8.05 2.68, 6.42 1.26, 2.89 -1.8 M9.69 4.1 C7.52 2.22, 5.36 0.34, 2.89 -1.8" stroke="#228be6" stroke-width="0.5" fill="none"></path><path d="M1.78 0 M1.78 0 C3.25 0, 4.72 0, 6.03 0 M1.78 0 C2.75 0, 3.72 0, 6.03 0 M6.03 0 C7.22 0, 7.81 0.59, 7.81 1.78 M6.03 0 C7.22 0, 7.81 0.59, 7.81 1.78 M7.81 1.78 C7.81 2.53, 7.81 3.29, 7.81 5.33 M7.81 1.78 C7.81 3, 7.81 4.23, 7.81 5.33 M7.81 5.33 C7.81 6.52, 7.22 7.11, 6.03 7.11 M7.81 5.33 C7.81 6.52, 7.22 7.11, 6.03 7.11 M6.03 7.11 C4.59 7.11, 3.15 7.11, 1.78 7.11 M6.03 7.11 C5.04 7.11, 4.04 7.11, 1.78 7.11 M1.78 7.11 C0.59 7.11, 0 6.52, 0 5.33 M1.78 7.11 C0.59 7.11, 0 6.52, 0 5.33 M0 5.33 C0 4.02, 0 2.71, 0 1.78 M0 5.33 C0 4.29, 0 3.25, 0 1.78 M0 1.78 C0 0.59, 0.59 0, 1.78 0 M0 1.78 C0 0.59, 0.59 0, 1.78 0" stroke="#228be6" stroke-width="1" fill="none"></path></g><g stroke-linecap="round" transform="translate(673.8683367967346 511.2640159662699) rotate(0 3.903820091937007 3.555802368026235)"><path d="M0.47 0.41 C0.47 0.41, 0.47 0.41, 0.47 0.41 M0.47 0.41 C0.47 0.41, 0.47 0.41, 0.47 0.41 M2.84 3.79 C3.13 3.46, 3.42 3.12, 4.15 2.28 M2.84 3.79 C3.2 3.38, 3.56 2.96, 4.15 2.28 M3.23 9.43 C5.32 7.02, 7.42 4.62, 9.14 2.64 M3.23 9.43 C4.63 7.83, 6.03 6.22, 9.14 2.64 M0.66 6.86 C0.66 6.86, 0.66 6.86, 0.66 6.86 M0.66 6.86 C0.66 6.86, 0.66 6.86, 0.66 6.86 M6.31 6.46 C4.73 5.09, 3.16 3.73, 0.27 1.21 M6.31 6.46 C4.19 4.62, 2.08 2.79, 0.27 1.21 M9.69 4.1 C7.22 1.95, 4.75 -0.19, 2.89 -1.8 M9.69 4.1 C7.9 2.54, 6.11 0.99, 2.89 -1.8" stroke="#228be6" stroke-width="0.5" fill="none"></path><path d="M1.78 0 M1.78 0 C3.1 0, 4.43 0, 6.03 0 M1.78 0 C3.43 0, 5.08 0, 6.03 0 M6.03 0 C7.22 0, 7.81 0.59, 7.81 1.78 M6.03 0 C7.22 0, 7.81 0.59, 7.81 1.78 M7.81 1.78 C7.81 3.01, 7.81 4.24, 7.81 5.33 M7.81 1.78 C7.81 2.8, 7.81 3.81, 7.81 5.33 M7.81 5.33 C7.81 6.52, 7.22 7.11, 6.03 7.11 M7.81 5.33 C7.81 6.52, 7.22 7.11, 6.03 7.11 M6.03 7.11 C5.02 7.11, 4 7.11, 1.78 7.11 M6.03 7.11 C4.39 7.11, 2.75 7.11, 1.78 7.11 M1.78 7.11 C0.59 7.11, 0 6.52, 0 5.33 M1.78 7.11 C0.59 7.11, 0 6.52, 0 5.33 M0 5.33 C0 4.11, 0 2.88, 0 1.78 M0 5.33 C0 4.62, 0 3.9, 0 1.78 M0 1.78 C0 0.59, 0.59 0, 1.78 0 M0 1.78 C0 0.59, 0.59 0, 1.78 0" stroke="#228be6" stroke-width="1" fill="none"></path></g><g stroke-linecap="round" transform="translate(682.8864555835062 511.2488844296172) rotate(0 3.903820091937007 3.555802368026235)"><path d="M0.47 0.41 C0.47 0.41, 0.47 0.41, 0.47 0.41 M0.47 0.41 C0.47 0.41, 0.47 0.41, 0.47 0.41 M2.84 3.79 C3.33 3.22, 3.83 2.65, 4.15 2.28 M2.84 3.79 C3.27 3.29, 3.71 2.78, 4.15 2.28 M3.23 9.43 C5.38 6.96, 7.53 4.48, 9.14 2.64 M3.23 9.43 C4.89 7.52, 6.55 5.61, 9.14 2.64 M0.66 6.86 C0.66 6.86, 0.66 6.86, 0.66 6.86 M0.66 6.86 C0.66 6.86, 0.66 6.86, 0.66 6.86 M6.31 6.46 C4.7 5.07, 3.09 3.67, 0.27 1.21 M6.31 6.46 C4.24 4.67, 2.17 2.87, 0.27 1.21 M9.69 4.1 C7.33 2.05, 4.97 0, 2.89 -1.8 M9.69 4.1 C8.1 2.72, 6.52 1.35, 2.89 -1.8" stroke="#228be6" stroke-width="0.5" fill="none"></path><path d="M1.78 0 M1.78 0 C2.91 0, 4.05 0, 6.03 0 M1.78 0 C3.33 0, 4.88 0, 6.03 0 M6.03 0 C7.22 0, 7.81 0.59, 7.81 1.78 M6.03 0 C7.22 0, 7.81 0.59, 7.81 1.78 M7.81 1.78 C7.81 2.74, 7.81 3.71, 7.81 5.33 M7.81 1.78 C7.81 2.59, 7.81 3.4, 7.81 5.33 M7.81 5.33 C7.81 6.52, 7.22 7.11, 6.03 7.11 M7.81 5.33 C7.81 6.52, 7.22 7.11, 6.03 7.11 M6.03 7.11 C4.9 7.11, 3.76 7.11, 1.78 7.11 M6.03 7.11 C4.9 7.11, 3.78 7.11, 1.78 7.11 M1.78 7.11 C0.59 7.11, 0 6.52, 0 5.33 M1.78 7.11 C0.59 7.11, 0 6.52, 0 5.33 M0 5.33 C0 4.02, 0 2.71, 0 1.78 M0 5.33 C0 4.43, 0 3.54, 0 1.78 M0 1.78 C0 0.59, 0.59 0, 1.78 0 M0 1.78 C0 0.59, 0.59 0, 1.78 0" stroke="#228be6" stroke-width="1" fill="none"></path></g><g stroke-linecap="round" transform="translate(691.8137934621091 511.1429664436306) rotate(0 3.903820091937007 3.555802368026235)"><path d="M0.47 0.41 C0.47 0.41, 0.47 0.41, 0.47 0.41 M0.47 0.41 C0.47 0.41, 0.47 0.41, 0.47 0.41 M2.84 3.79 C3.33 3.22, 3.82 2.66, 4.15 2.28 M2.84 3.79 C3.28 3.28, 3.72 2.77, 4.15 2.28 M3.23 9.43 C5.17 7.2, 7.11 4.97, 9.14 2.64 M3.23 9.43 C5.02 7.37, 6.81 5.31, 9.14 2.64 M0.66 6.86 C0.66 6.86, 0.66 6.86, 0.66 6.86 M0.66 6.86 C0.66 6.86, 0.66 6.86, 0.66 6.86 M6.31 6.46 C5 5.32, 3.68 4.18, 0.27 1.21 M6.31 6.46 C4.87 5.21, 3.43 3.96, 0.27 1.21 M9.69 4.1 C7.97 2.61, 6.26 1.12, 2.89 -1.8 M9.69 4.1 C7.64 2.32, 5.59 0.54, 2.89 -1.8" stroke="#228be6" stroke-width="0.5" fill="none"></path><path d="M1.78 0 M1.78 0 C2.8 0, 3.81 0, 6.03 0 M1.78 0 C3.43 0, 5.09 0, 6.03 0 M6.03 0 C7.22 0, 7.81 0.59, 7.81 1.78 M6.03 0 C7.22 0, 7.81 0.59, 7.81 1.78 M7.81 1.78 C7.81 2.55, 7.81 3.32, 7.81 5.33 M7.81 1.78 C7.81 2.59, 7.81 3.4, 7.81 5.33 M7.81 5.33 C7.81 6.52, 7.22 7.11, 6.03 7.11 M7.81 5.33 C7.81 6.52, 7.22 7.11, 6.03 7.11 M6.03 7.11 C4.33 7.11, 2.64 7.11, 1.78 7.11 M6.03 7.11 C5.16 7.11, 4.3 7.11, 1.78 7.11 M1.78 7.11 C0.59 7.11, 0 6.52, 0 5.33 M1.78 7.11 C0.59 7.11, 0 6.52, 0 5.33 M0 5.33 C0 4.22, 0 3.11, 0 1.78 M0 5.33 C0 4.23, 0 3.13, 0 1.78 M0 1.78 C0 0.59, 0.59 0, 1.78 0 M0 1.78 C0 0.59, 0.59 0, 1.78 0" stroke="#228be6" stroke-width="1" fill="none"></path></g><g stroke-linecap="round" transform="translate(682.8864555835062 502.85113786623845) rotate(0 3.903820091937007 3.555802368026235)"><path d="M0.47 0.41 C0.47 0.41, 0.47 0.41, 0.47 0.41 M0.47 0.41 C0.47 0.41, 0.47 0.41, 0.47 0.41 M2.84 3.79 C3.16 3.41, 3.49 3.04, 4.15 2.28 M2.84 3.79 C3.31 3.24, 3.79 2.7, 4.15 2.28 M3.23 9.43 C5.01 7.38, 6.79 5.34, 9.14 2.64 M3.23 9.43 C4.9 7.51, 6.57 5.59, 9.14 2.64 M0.66 6.86 C0.66 6.86, 0.66 6.86, 0.66 6.86 M0.66 6.86 C0.66 6.86, 0.66 6.86, 0.66 6.86 M6.31 6.46 C4.78 5.14, 3.25 3.81, 0.27 1.21 M6.31 6.46 C3.99 4.45, 1.68 2.44, 0.27 1.21 M9.69 4.1 C7.75 2.41, 5.81 0.73, 2.89 -1.8 M9.69 4.1 C7.84 2.5, 6 0.9, 2.89 -1.8" stroke="#228be6" stroke-width="0.5" fill="none"></path><path d="M1.78 0 M1.78 0 C2.86 0, 3.94 0, 6.03 0 M1.78 0 C3.37 0, 4.96 0, 6.03 0 M6.03 0 C7.22 0, 7.81 0.59, 7.81 1.78 M6.03 0 C7.22 0, 7.81 0.59, 7.81 1.78 M7.81 1.78 C7.81 2.68, 7.81 3.58, 7.81 5.33 M7.81 1.78 C7.81 3.11, 7.81 4.43, 7.81 5.33 M7.81 5.33 C7.81 6.52, 7.22 7.11, 6.03 7.11 M7.81 5.33 C7.81 6.52, 7.22 7.11, 6.03 7.11 M6.03 7.11 C4.73 7.11, 3.43 7.11, 1.78 7.11 M6.03 7.11 C4.68 7.11, 3.33 7.11, 1.78 7.11 M1.78 7.11 C0.59 7.11, 0 6.52, 0 5.33 M1.78 7.11 C0.59 7.11, 0 6.52, 0 5.33 M0 5.33 C0 3.92, 0 2.51, 0 1.78 M0 5.33 C0 4.05, 0 2.76, 0 1.78 M0 1.78 C0 0.59, 0.59 0, 1.78 0 M0 1.78 C0 0.59, 0.59 0, 1.78 0" stroke="#228be6" stroke-width="1" fill="none"></path></g><g stroke-linecap="round" transform="translate(673.8985970994577 502.8965310909052) rotate(0 3.903820091937007 3.555802368026235)"><path d="M0.47 0.41 C0.47 0.41, 0.47 0.41, 0.47 0.41 M0.47 0.41 C0.47 0.41, 0.47 0.41, 0.47 0.41 M2.84 3.79 C3.27 3.29, 3.71 2.78, 4.15 2.28 M2.84 3.79 C3.17 3.4, 3.51 3.01, 4.15 2.28 M3.23 9.43 C4.91 7.5, 6.59 5.57, 9.14 2.64 M3.23 9.43 C5.18 7.19, 7.13 4.94, 9.14 2.64 M0.66 6.86 C0.66 6.86, 0.66 6.86, 0.66 6.86 M0.66 6.86 C0.66 6.86, 0.66 6.86, 0.66 6.86 M6.31 6.46 C4.15 4.58, 1.99 2.71, 0.27 1.21 M6.31 6.46 C4.18 4.61, 2.05 2.76, 0.27 1.21 M9.69 4.1 C7.32 2.04, 4.95 -0.01, 2.89 -1.8 M9.69 4.1 C7.46 2.17, 5.24 0.24, 2.89 -1.8" stroke="#228be6" stroke-width="0.5" fill="none"></path><path d="M1.78 0 M1.78 0 C2.96 0, 4.15 0, 6.03 0 M1.78 0 C3.31 0, 4.84 0, 6.03 0 M6.03 0 C7.22 0, 7.81 0.59, 7.81 1.78 M6.03 0 C7.22 0, 7.81 0.59, 7.81 1.78 M7.81 1.78 C7.81 2.66, 7.81 3.55, 7.81 5.33 M7.81 1.78 C7.81 2.61, 7.81 3.44, 7.81 5.33 M7.81 5.33 C7.81 6.52, 7.22 7.11, 6.03 7.11 M7.81 5.33 C7.81 6.52, 7.22 7.11, 6.03 7.11 M6.03 7.11 C4.75 7.11, 3.46 7.11, 1.78 7.11 M6.03 7.11 C4.54 7.11, 3.04 7.11, 1.78 7.11 M1.78 7.11 C0.59 7.11, 0 6.52, 0 5.33 M1.78 7.11 C0.59 7.11, 0 6.52, 0 5.33 M0 5.33 C0 4.14, 0 2.94, 0 1.78 M0 5.33 C0 3.97, 0 2.61, 0 1.78 M0 1.78 C0 0.59, 0.59 0, 1.78 0 M0 1.78 C0 0.59, 0.59 0, 1.78 0" stroke="#228be6" stroke-width="1" fill="none"></path></g><g stroke-linecap="round" transform="translate(664.8199521660749 502.8965310909052) rotate(0 3.903820091937007 3.555802368026235)"><path d="M0.47 0.41 C0.47 0.41, 0.47 0.41, 0.47 0.41 M0.47 0.41 C0.47 0.41, 0.47 0.41, 0.47 0.41 M2.84 3.79 C3.11 3.48, 3.38 3.17, 4.15 2.28 M2.84 3.79 C3.24 3.33, 3.64 2.87, 4.15 2.28 M3.23 9.43 C5.43 6.91, 7.62 4.38, 9.14 2.64 M3.23 9.43 C5.21 7.16, 7.19 4.88, 9.14 2.64 M0.66 6.86 C0.66 6.86, 0.66 6.86, 0.66 6.86 M0.66 6.86 C0.66 6.86, 0.66 6.86, 0.66 6.86 M6.31 6.46 C4.42 4.83, 2.54 3.19, 0.27 1.21 M6.31 6.46 C5.08 5.4, 3.86 4.33, 0.27 1.21 M9.69 4.1 C7.05 1.81, 4.42 -0.48, 2.89 -1.8 M9.69 4.1 C7.77 2.44, 5.86 0.77, 2.89 -1.8" stroke="#228be6" stroke-width="0.5" fill="none"></path><path d="M1.78 0 M1.78 0 C3.38 0, 4.99 0, 6.03 0 M1.78 0 C3.34 0, 4.9 0, 6.03 0 M6.03 0 C7.22 0, 7.81 0.59, 7.81 1.78 M6.03 0 C7.22 0, 7.81 0.59, 7.81 1.78 M7.81 1.78 C7.81 2.55, 7.81 3.31, 7.81 5.33 M7.81 1.78 C7.81 2.87, 7.81 3.95, 7.81 5.33 M7.81 5.33 C7.81 6.52, 7.22 7.11, 6.03 7.11 M7.81 5.33 C7.81 6.52, 7.22 7.11, 6.03 7.11 M6.03 7.11 C4.75 7.11, 3.48 7.11, 1.78 7.11 M6.03 7.11 C4.63 7.11, 3.23 7.11, 1.78 7.11 M1.78 7.11 C0.59 7.11, 0 6.52, 0 5.33 M1.78 7.11 C0.59 7.11, 0 6.52, 0 5.33 M0 5.33 C0 4.3, 0 3.27, 0 1.78 M0 5.33 C0 4.02, 0 2.7, 0 1.78 M0 1.78 C0 0.59, 0.59 0, 1.78 0 M0 1.78 C0 0.59, 0.59 0, 1.78 0" stroke="#228be6" stroke-width="1" fill="none"></path></g><g stroke-linecap="round" transform="translate(682.8259294368952 494.5290448302494) rotate(0 3.903820091937007 3.555802368026235)"><path d="M0.47 0.41 C0.47 0.41, 0.47 0.41, 0.47 0.41 M0.47 0.41 C0.47 0.41, 0.47 0.41, 0.47 0.41 M2.84 3.79 C3.15 3.43, 3.47 3.07, 4.15 2.28 M2.84 3.79 C3.19 3.39, 3.54 2.98, 4.15 2.28 M3.23 9.43 C5.03 7.36, 6.84 5.28, 9.14 2.64 M3.23 9.43 C4.51 7.96, 5.79 6.49, 9.14 2.64 M0.66 6.86 C0.66 6.86, 0.66 6.86, 0.66 6.86 M0.66 6.86 C0.66 6.86, 0.66 6.86, 0.66 6.86 M6.31 6.46 C4.86 5.2, 3.4 3.94, 0.27 1.21 M6.31 6.46 C4.39 4.79, 2.46 3.12, 0.27 1.21 M9.69 4.1 C7.33 2.05, 4.98 0.01, 2.89 -1.8 M9.69 4.1 C8.14 2.75, 6.59 1.41, 2.89 -1.8" stroke="#228be6" stroke-width="0.5" fill="none"></path><path d="M1.78 0 M1.78 0 C2.89 0, 4 0, 6.03 0 M1.78 0 C2.83 0, 3.88 0, 6.03 0 M6.03 0 C7.22 0, 7.81 0.59, 7.81 1.78 M6.03 0 C7.22 0, 7.81 0.59, 7.81 1.78 M7.81 1.78 C7.81 2.71, 7.81 3.65, 7.81 5.33 M7.81 1.78 C7.81 2.73, 7.81 3.68, 7.81 5.33 M7.81 5.33 C7.81 6.52, 7.22 7.11, 6.03 7.11 M7.81 5.33 C7.81 6.52, 7.22 7.11, 6.03 7.11 M6.03 7.11 C4.52 7.11, 3 7.11, 1.78 7.11 M6.03 7.11 C5.16 7.11, 4.29 7.11, 1.78 7.11 M1.78 7.11 C0.59 7.11, 0 6.52, 0 5.33 M1.78 7.11 C0.59 7.11, 0 6.52, 0 5.33 M0 5.33 C0 4.58, 0 3.83, 0 1.78 M0 5.33 C0 4.6, 0 3.87, 0 1.78 M0 1.78 C0 0.59, 0.59 0, 1.78 0 M0 1.78 C0 0.59, 0.59 0, 1.78 0" stroke="#228be6" stroke-width="1" fill="none"></path></g><g stroke-linecap="round"><g transform="translate(713.2537842651159 513.2937024547505) rotate(0 -26.751974510549587 12.922901765876219)" fill-rule="evenodd"><path d="M-63.22 7.32 C-63.22 7.32, -63.22 7.32, -63.22 7.32 M-63.22 7.32 C-63.22 7.32, -63.22 7.32, -63.22 7.32 M-61.52 11.45 C-61.06 10.92, -60.6 10.39, -59.55 9.19 M-61.52 11.45 C-60.88 10.71, -60.24 9.98, -59.55 9.19 M-60.47 16.34 C-58.22 13.76, -55.98 11.18, -53.91 8.79 M-60.47 16.34 C-59.15 14.82, -57.83 13.3, -53.91 8.79 M-59.42 21.23 C-57.1 18.56, -54.78 15.89, -48.92 9.15 M-59.42 21.23 C-55.77 17.03, -52.13 12.84, -48.92 9.15 M-57.71 25.36 C-54.8 22.02, -51.9 18.67, -43.28 8.76 M-57.71 25.36 C-54.06 21.16, -50.41 16.96, -43.28 8.76 M-56 29.49 C-49.19 21.66, -42.38 13.82, -38.29 9.12 M-56 29.49 C-52.22 25.14, -48.44 20.79, -38.29 9.12 M-52.33 31.36 C-46.58 24.75, -40.83 18.14, -32.65 8.72 M-52.33 31.36 C-46.85 25.06, -41.37 18.76, -32.65 8.72 M-49.31 33.99 C-42.47 26.12, -35.64 18.26, -27.66 9.08 M-49.31 33.99 C-44.95 28.97, -40.58 23.95, -27.66 9.08 M-44.98 35.1 C-36.54 25.39, -28.09 15.68, -22.02 8.69 M-44.98 35.1 C-35.98 24.75, -26.97 14.39, -22.02 8.69 M-40.65 36.22 C-32.41 26.74, -24.17 17.27, -15.72 7.54 M-40.65 36.22 C-34.07 28.66, -27.5 21.1, -15.72 7.54 M-7.19 -2.27 C-5.98 -3.66, -4.77 -5.05, -3.25 -6.8 M-7.19 -2.27 C-5.67 -4.01, -4.16 -5.76, -3.25 -6.8 M-34.35 35.07 C-27.63 27.34, -20.91 19.6, -9.42 6.39 M-34.35 35.07 C-28.67 28.54, -23 22.01, -9.42 6.39 M-6.79 3.37 C-4.95 1.25, -3.1 -0.88, -0.89 -3.42 M-6.79 3.37 C-4.9 1.19, -3 -0.99, -0.89 -3.42 M-28.05 33.92 C-19.41 23.98, -10.76 14.03, 0.82 0.71 M-28.05 33.92 C-16.61 20.76, -5.17 7.59, 0.82 0.71 M-21.75 32.77 C-15.57 25.66, -9.39 18.55, -2.07 10.13 M-21.75 32.77 C-15.03 25.04, -8.31 17.31, -2.07 10.13 M-2.07 10.13 C0.58 7.08, 3.23 4.03, 6.46 0.32 M-2.07 10.13 C0.9 6.72, 3.86 3.31, 6.46 0.32 M3.58 9.73 C5.97 6.98, 8.36 4.23, 10.14 2.19 M3.58 9.73 C5.29 7.76, 7 5.79, 10.14 2.19 M-58.04 27.14 C-58.04 27.14, -58.04 27.14, -58.04 27.14 M-58.04 27.14 C-58.04 27.14, -58.04 27.14, -58.04 27.14 M-48.62 30.02 C-51.73 27.32, -54.84 24.62, -61.45 18.87 M-48.62 30.02 C-53.38 25.89, -58.13 21.75, -61.45 18.87 M-41.47 30.94 C-47.12 26.03, -52.77 21.12, -62.6 12.57 M-41.47 30.94 C-47.45 25.75, -53.42 20.55, -62.6 12.57 M-33.56 32.51 C-40.95 26.09, -48.34 19.67, -63 6.93 M-33.56 32.51 C-40.48 26.5, -47.4 20.49, -63 6.93 M-28.67 31.46 C-35.63 25.42, -42.59 19.37, -60.37 3.91 M-28.67 31.46 C-41.27 20.51, -53.87 9.56, -60.37 3.91 M-23.79 30.41 C-30.41 24.66, -37.03 18.9, -53.97 4.17 M-23.79 30.41 C-32.68 22.68, -41.57 14.96, -53.97 4.17 M-19.65 28.7 C-30.19 19.55, -40.72 10.39, -48.33 3.77 M-19.65 28.7 C-29.85 19.84, -40.04 10.98, -48.33 3.77 M-16.27 26.34 C-23.99 19.64, -31.7 12.93, -41.93 4.04 M-16.27 26.34 C-23.05 20.45, -29.83 14.55, -41.93 4.04 M-12.14 24.64 C-17.62 19.88, -23.09 15.11, -36.29 3.64 M-12.14 24.64 C-19.61 18.14, -27.09 11.64, -36.29 3.64 M-9.52 21.62 C-17.13 15, -24.74 8.39, -29.89 3.9 M-9.52 21.62 C-16.33 15.69, -23.15 9.77, -29.89 3.9 M-6.89 18.6 C-10.86 15.15, -14.82 11.7, -23.5 4.16 M-6.89 18.6 C-11.66 14.45, -16.43 10.3, -23.5 4.16 M-4.27 15.58 C-7 13.2, -9.73 10.83, -15.59 5.74 M-4.27 15.58 C-8.46 11.93, -12.66 8.28, -15.59 5.74 M-2.4 11.9 C-5.47 9.24, -8.54 6.57, -10.7 4.69 M-2.4 11.9 C-5.65 9.08, -8.9 6.25, -10.7 4.69 M-0.53 8.23 C-1.93 7.01, -3.34 5.78, -6.57 2.98 M-0.53 8.23 C-2.42 6.59, -4.3 4.95, -6.57 2.98 M4.36 7.18 C0.38 3.72, -3.6 0.26, -8.47 -3.97 M4.36 7.18 C1.79 4.94, -0.78 2.71, -8.47 -3.97 M8.49 5.47 C6.97 4.15, 5.45 2.83, 0.95 -1.09 M8.49 5.47 C5.65 3, 2.82 0.54, 0.95 -1.09 M0.95 -1.09 C-1.14 -2.9, -3.23 -4.72, -6.6 -7.65 M0.95 -1.09 C-1.82 -3.49, -4.58 -5.89, -6.6 -7.65" stroke="#228be6" stroke-width="0.5" fill="none"></path><path d="M0 0 C-0.17 -0.57, -0.36 -2.27, -1.03 -3.45 C-1.69 -4.62, -3.08 -6.26, -3.99 -7.05 C-4.89 -7.83, -5.67 -8.73, -6.46 -8.14 C-7.24 -7.55, -8.29 -5, -8.7 -3.49 C-9.12 -1.98, -9.04 -0.31, -8.95 0.9 C-8.86 2.11, -8.29 3.02, -8.16 3.77 C-8.04 4.53, -6.8 5.01, -8.18 5.45 C-9.57 5.89, -11.11 6.24, -16.47 6.4 C-21.84 6.57, -33.48 6.45, -40.36 6.43 C-47.25 6.41, -54.11 6.27, -57.79 6.3 C-61.47 6.33, -61.5 6.1, -62.43 6.61 C-63.36 7.12, -63.44 7.22, -63.37 9.35 C-63.3 11.49, -62.96 16.41, -62.01 19.43 C-61.06 22.45, -59.51 25.36, -57.67 27.46 C-55.83 29.56, -53.3 30.97, -50.97 32.03 C-48.63 33.08, -46.29 33.47, -43.65 33.8 C-41 34.13, -38.6 34.36, -35.07 33.98 C-31.55 33.61, -26.21 32.88, -22.49 31.54 C-18.77 30.2, -15.67 28.4, -12.77 25.95 C-9.88 23.5, -6.94 19.53, -5.13 16.83 C-3.31 14.13, -2.82 11.04, -1.9 9.74 C-0.98 8.45, -0.4 9.24, 0.38 9.04 C1.16 8.84, 1.59 9.08, 2.79 8.56 C3.99 8.03, 6.46 6.8, 7.59 5.88 C8.71 4.95, 9.23 3.75, 9.54 3.01 C9.85 2.27, 10.16 1.97, 9.44 1.44 C8.72 0.9, 6.8 0.03, 5.22 -0.21 C3.65 -0.44, 0.87 -0.03, 0 0 M0 0 C-0.17 -0.57, -0.36 -2.27, -1.03 -3.45 C-1.69 -4.62, -3.08 -6.26, -3.99 -7.05 C-4.89 -7.83, -5.67 -8.73, -6.46 -8.14 C-7.24 -7.55, -8.29 -5, -8.7 -3.49 C-9.12 -1.98, -9.04 -0.31, -8.95 0.9 C-8.86 2.11, -8.29 3.02, -8.16 3.77 C-8.04 4.53, -6.8 5.01, -8.18 5.45 C-9.57 5.89, -11.11 6.24, -16.47 6.4 C-21.84 6.57, -33.48 6.45, -40.36 6.43 C-47.25 6.41, -54.11 6.27, -57.79 6.3 C-61.47 6.33, -61.5 6.1, -62.43 6.61 C-63.36 7.12, -63.44 7.22, -63.37 9.35 C-63.3 11.49, -62.96 16.41, -62.01 19.43 C-61.06 22.45, -59.51 25.36, -57.67 27.46 C-55.83 29.56, -53.3 30.97, -50.97 32.03 C-48.63 33.08, -46.29 33.47, -43.65 33.8 C-41 34.13, -38.6 34.36, -35.07 33.98 C-31.55 33.61, -26.21 32.88, -22.49 31.54 C-18.77 30.2, -15.67 28.4, -12.77 25.95 C-9.88 23.5, -6.94 19.53, -5.13 16.83 C-3.31 14.13, -2.82 11.04, -1.9 9.74 C-0.98 8.45, -0.4 9.24, 0.38 9.04 C1.16 8.84, 1.59 9.08, 2.79 8.56 C3.99 8.03, 6.46 6.8, 7.59 5.88 C8.71 4.95, 9.23 3.75, 9.54 3.01 C9.85 2.27, 10.16 1.97, 9.44 1.44 C8.72 0.9, 6.8 0.03, 5.22 -0.21 C3.65 -0.44, 0.87 -0.03, 0 0" stroke="#228be6" stroke-width="1" fill="none"></path></g></g><mask></mask><g stroke-linecap="round"><g transform="translate(786.6916201240967 554.1410111487656) rotate(0 -43.971275074250514 -18.176936479990275)"><path d="M0.19 0.17 C-14.39 -5.44, -72.64 -28.97, -87.37 -34.76 M-1.17 -0.78 C-15.89 -6.64, -73.45 -30.59, -88.13 -36.53" stroke="#1e1e1e" stroke-width="1" fill="none"></path></g><g transform="translate(786.6916201240967 554.1410111487656) rotate(0 -43.971275074250514 -18.176936479990275)"><path d="M-57.87 -34.71 C-66.36 -36.48, -75.33 -35.02, -86.38 -35.5 M-58.74 -34.63 C-66.17 -35.41, -73.16 -36.69, -88.48 -37.28" stroke="#1e1e1e" stroke-width="1" fill="none"></path></g><g transform="translate(786.6916201240967 554.1410111487656) rotate(0 -43.971275074250514 -18.176936479990275)"><path d="M-65.67 -15.73 C-71.55 -23.42, -78.1 -27.87, -86.38 -35.5 M-66.54 -15.65 C-71.93 -21.16, -76.97 -27.19, -88.48 -37.28" stroke="#1e1e1e" stroke-width="1" fill="none"></path></g></g><mask></mask><g stroke-linecap="round"><g transform="translate(649.8354503712992 508.301833280871) rotate(0 -115.64833071443474 -45.36169176129309)"><path d="M0.85 0.47 C-37.83 -14.51, -192.78 -74.44, -231.49 -89.28 M-0.16 -0.33 C-39 -15.73, -193.54 -76.2, -232.15 -91.19" stroke="#1e1e1e" stroke-width="1" fill="none"></path></g><g transform="translate(649.8354503712992 508.301833280871) rotate(0 -115.64833071443474 -45.36169176129309)"><path d="M-201.38 -89.6 C-212.03 -89.47, -221.3 -92.38, -230.71 -91.89 M-201.64 -89.53 C-212.74 -91.5, -221.7 -91.43, -231.48 -91.57" stroke="#1e1e1e" stroke-width="1" fill="none"></path></g><g transform="translate(649.8354503712992 508.301833280871) rotate(0 -115.64833071443474 -45.36169176129309)"><path d="M-208.83 -70.48 C-216.97 -77.11, -223.62 -86.73, -230.71 -91.89 M-209.1 -70.41 C-217.58 -78.84, -224.01 -85.27, -231.48 -91.57" stroke="#1e1e1e" stroke-width="1" fill="none"></path></g></g><mask></mask><g stroke-linecap="round" transform="translate(44.354134020844924 382.026696370757) rotate(0 22.445481458812083 34.327365930073)"><path d="M0 0 C0 0, 0 0, 0 0 M0 0 C0 0, 0 0, 0 0 M0.13 12.04 C2.43 9.4, 4.72 6.77, 10.63 -0.03 M0.13 12.04 C4.04 7.55, 7.95 3.05, 10.63 -0.03 M0.27 24.08 C6 17.48, 11.74 10.88, 21.26 -0.07 M0.27 24.08 C8.25 14.9, 16.24 5.71, 21.26 -0.07 M-0.26 36.88 C10.43 24.59, 21.11 12.29, 31.89 -0.1 M-0.26 36.88 C11.23 23.66, 22.72 10.45, 31.89 -0.1 M-0.12 48.92 C9.93 37.35, 19.99 25.78, 42.52 -0.14 M-0.12 48.92 C14.12 32.53, 28.37 16.14, 42.52 -0.14 M0.01 60.96 C14.49 44.3, 28.98 27.64, 49.21 4.36 M0.01 60.96 C12.11 47.04, 24.21 33.12, 49.21 4.36 M2.11 70.74 C18.11 52.33, 34.11 33.92, 49.35 16.4 M2.11 70.74 C15.49 55.35, 28.87 39.96, 49.35 16.4 M12.74 70.7 C26.35 55.05, 39.95 39.4, 49.48 28.44 M12.74 70.7 C21.59 60.53, 30.43 50.35, 49.48 28.44 M23.37 70.67 C28.9 64.31, 34.42 57.95, 49.61 40.48 M23.37 70.67 C30.41 62.57, 37.44 54.48, 49.61 40.48 M34 70.63 C39.53 64.27, 45.06 57.91, 49.75 52.52 M34 70.63 C37.46 66.66, 40.91 62.68, 49.75 52.52 M-0.03 68.63 C-0.03 68.63, -0.03 68.63, -0.03 68.63 M-0.03 68.63 C-0.03 68.63, -0.03 68.63, -0.03 68.63 M12.01 68.49 C7.74 64.79, 3.48 61.08, -0.07 58 M12.01 68.49 C7.97 64.98, 3.92 61.46, -0.07 58 M24.05 68.36 C14.4 59.97, 4.74 51.57, -0.1 47.37 M24.05 68.36 C17.27 62.46, 10.48 56.57, -0.1 47.37 M36.85 68.88 C28.81 61.9, 20.77 54.91, -0.13 36.74 M36.85 68.88 C28.9 61.98, 20.96 55.08, -0.13 36.74 M46.62 66.78 C27.94 50.54, 9.26 34.3, -0.17 26.11 M46.62 66.78 C29.58 51.97, 12.53 37.15, -0.17 26.11 M46.59 56.15 C32.11 43.57, 17.63 30.98, -0.2 15.48 M46.59 56.15 C29.66 41.44, 12.73 26.72, -0.2 15.48 M46.55 45.52 C31.03 32.03, 15.51 18.54, -0.24 4.85 M46.55 45.52 C28.1 29.48, 9.65 13.44, -0.24 4.85 M46.52 34.89 C32.49 22.69, 18.45 10.49, 2.75 -3.16 M46.52 34.89 C31.04 21.43, 15.55 7.97, 2.75 -3.16 M46.48 24.26 C38.54 17.36, 30.6 10.45, 14.79 -3.29 M46.48 24.26 C34.24 13.62, 22 2.97, 14.79 -3.29 M46.45 13.63 C41.21 9.08, 35.98 4.53, 26.83 -3.43 M46.45 13.63 C41.68 9.48, 36.9 5.33, 26.83 -3.43 M46.42 3 C44.14 1.03, 41.87 -0.95, 39.62 -2.9 M46.42 3 C44.85 1.64, 43.29 0.28, 39.62 -2.9" stroke="#868e96" stroke-width="1" fill="none"></path><path d="M0 0 C9.77 0, 19.55 0, 44.89 0 M0 0 C9.64 0, 19.29 0, 44.89 0 M44.89 0 C44.89 20.27, 44.89 40.55, 44.89 68.65 M44.89 0 C44.89 18.99, 44.89 37.98, 44.89 68.65 M44.89 68.65 C32.31 68.65, 19.73 68.65, 0 68.65 M44.89 68.65 C32.61 68.65, 20.34 68.65, 0 68.65 M0 68.65 C0 54.14, 0 39.63, 0 0 M0 68.65 C0 43.74, 0 18.82, 0 0" stroke="#000000" stroke-width="2" fill="none"></path></g><g stroke-linecap="round" transform="translate(49.49365578247972 387.2609726552105) rotate(0 17.68634444021592 26.254098365838104)"><path d="M0 0 L35.37 0 L35.37 52.51 L0 52.51" stroke="none" stroke-width="0" fill="#fff"></path><path d="M0 0 C9.32 0, 18.65 0, 35.37 0 M0 0 C9.91 0, 19.81 0, 35.37 0 M35.37 0 C35.37 11.52, 35.37 23.04, 35.37 52.51 M35.37 0 C35.37 17.42, 35.37 34.85, 35.37 52.51 M35.37 52.51 C25.91 52.51, 16.44 52.51, 0 52.51 M35.37 52.51 C27.52 52.51, 19.66 52.51, 0 52.51 M0 52.51 C0 36.35, 0 20.2, 0 0 M0 52.51 C0 32.96, 0 13.4, 0 0" stroke="#000000" stroke-width="2" fill="none"></path></g><g stroke-linecap="round" transform="translate(63.55791747790164 442.01629884806994) rotate(0 3.6220827447935733 3.6220827447935733)"><path d="M7.24 3.62 C7.24 3.83, 7.23 4.04, 7.19 4.25 C7.15 4.46, 7.1 4.66, 7.03 4.86 C6.95 5.06, 6.86 5.25, 6.76 5.43 C6.65 5.61, 6.53 5.79, 6.4 5.95 C6.26 6.11, 6.11 6.26, 5.95 6.4 C5.79 6.53, 5.61 6.65, 5.43 6.76 C5.25 6.86, 5.06 6.95, 4.86 7.03 C4.66 7.1, 4.46 7.15, 4.25 7.19 C4.04 7.23, 3.83 7.24, 3.62 7.24 C3.41 7.24, 3.2 7.23, 2.99 7.19 C2.79 7.15, 2.58 7.1, 2.38 7.03 C2.19 6.95, 1.99 6.86, 1.81 6.76 C1.63 6.65, 1.45 6.53, 1.29 6.4 C1.13 6.26, 0.98 6.11, 0.85 5.95 C0.71 5.79, 0.59 5.61, 0.49 5.43 C0.38 5.25, 0.29 5.06, 0.22 4.86 C0.15 4.66, 0.09 4.46, 0.06 4.25 C0.02 4.04, 0 3.83, 0 3.62 C0 3.41, 0.02 3.2, 0.06 2.99 C0.09 2.79, 0.15 2.58, 0.22 2.38 C0.29 2.19, 0.38 1.99, 0.49 1.81 C0.59 1.63, 0.71 1.45, 0.85 1.29 C0.98 1.13, 1.13 0.98, 1.29 0.85 C1.45 0.71, 1.63 0.59, 1.81 0.49 C1.99 0.38, 2.19 0.29, 2.38 0.22 C2.58 0.15, 2.79 0.09, 2.99 0.06 C3.2 0.02, 3.41 0, 3.62 0 C3.83 0, 4.04 0.02, 4.25 0.06 C4.46 0.09, 4.66 0.15, 4.86 0.22 C5.06 0.29, 5.25 0.38, 5.43 0.49 C5.61 0.59, 5.79 0.71, 5.95 0.85 C6.11 0.98, 6.26 1.13, 6.4 1.29 C6.53 1.45, 6.65 1.63, 6.76 1.81 C6.86 1.99, 6.95 2.19, 7.03 2.38 C7.1 2.58, 7.15 2.79, 7.19 2.99 C7.23 3.2, 7.23 3.52, 7.24 3.62 C7.25 3.73, 7.25 3.52, 7.24 3.62" stroke="none" stroke-width="0" fill="#fff"></path><path d="M7.24 3.62 C7.24 3.83, 7.23 4.04, 7.19 4.25 C7.15 4.46, 7.1 4.66, 7.03 4.86 C6.95 5.06, 6.86 5.25, 6.76 5.43 C6.65 5.61, 6.53 5.79, 6.4 5.95 C6.26 6.11, 6.11 6.26, 5.95 6.4 C5.79 6.53, 5.61 6.65, 5.43 6.76 C5.25 6.86, 5.06 6.95, 4.86 7.03 C4.66 7.1, 4.46 7.15, 4.25 7.19 C4.04 7.23, 3.83 7.24, 3.62 7.24 C3.41 7.24, 3.2 7.23, 2.99 7.19 C2.79 7.15, 2.58 7.1, 2.38 7.03 C2.19 6.95, 1.99 6.86, 1.81 6.76 C1.63 6.65, 1.45 6.53, 1.29 6.4 C1.13 6.26, 0.98 6.11, 0.85 5.95 C0.71 5.79, 0.59 5.61, 0.49 5.43 C0.38 5.25, 0.29 5.06, 0.22 4.86 C0.15 4.66, 0.09 4.46, 0.06 4.25 C0.02 4.04, 0 3.83, 0 3.62 C0 3.41, 0.02 3.2, 0.06 2.99 C0.09 2.79, 0.15 2.58, 0.22 2.38 C0.29 2.19, 0.38 1.99, 0.49 1.81 C0.59 1.63, 0.71 1.45, 0.85 1.29 C0.98 1.13, 1.13 0.98, 1.29 0.85 C1.45 0.71, 1.63 0.59, 1.81 0.49 C1.99 0.38, 2.19 0.29, 2.38 0.22 C2.58 0.15, 2.79 0.09, 2.99 0.06 C3.2 0.02, 3.41 0, 3.62 0 C3.83 0, 4.04 0.02, 4.25 0.06 C4.46 0.09, 4.66 0.15, 4.86 0.22 C5.06 0.29, 5.25 0.38, 5.43 0.49 C5.61 0.59, 5.79 0.71, 5.95 0.85 C6.11 0.98, 6.26 1.13, 6.4 1.29 C6.53 1.45, 6.65 1.63, 6.76 1.81 C6.86 1.99, 6.95 2.19, 7.03 2.38 C7.1 2.58, 7.15 2.79, 7.19 2.99 C7.23 3.2, 7.23 3.52, 7.24 3.62 C7.25 3.73, 7.25 3.52, 7.24 3.62" stroke="#000000" stroke-width="2" fill="none"></path></g><g stroke-linecap="round" transform="translate(54.74220068710298 393.94497617740853) rotate(0 12.43779953559212 6.304023542482355)"><path d="M0 0 C0 0, 0 0, 0 0 M0 0 C0 0, 0 0, 0 0 M0.13 12.04 C4.15 7.42, 8.16 2.81, 10.63 -0.03 M0.13 12.04 C4.19 7.37, 8.25 2.71, 10.63 -0.03 M5.51 18.04 C11.77 10.84, 18.03 3.64, 21.26 -0.07 M5.51 18.04 C11.15 11.56, 16.79 5.07, 21.26 -0.07 M16.14 18.01 C19.06 14.65, 21.98 11.3, 28.61 3.67 M16.14 18.01 C20.46 13.05, 24.77 8.09, 28.61 3.67 M-0.2 12.43 C-0.2 12.43, -0.2 12.43, -0.2 12.43 M-0.2 12.43 C-0.2 12.43, -0.2 12.43, -0.2 12.43 M11.84 12.3 C7.2 8.27, 2.57 4.24, -0.24 1.8 M11.84 12.3 C7.99 8.96, 4.15 5.62, -0.24 1.8 M24.63 12.82 C17.41 6.55, 10.2 0.27, 4.25 -4.89 M24.63 12.82 C19.28 8.17, 13.94 3.52, 4.25 -4.89 M29.88 6.78 C24.99 2.53, 20.09 -1.73, 16.3 -5.03 M29.88 6.78 C26.57 3.91, 23.27 1.04, 16.3 -5.03" stroke="#4c6ef588" stroke-width="1" fill="none"></path><path d="M0 0 C8.48 0, 16.96 0, 24.88 0 M0 0 C7.45 0, 14.91 0, 24.88 0 M24.88 0 C24.88 3.59, 24.88 7.18, 24.88 12.61 M24.88 0 C24.88 4.03, 24.88 8.06, 24.88 12.61 M24.88 12.61 C15.2 12.61, 5.53 12.61, 0 12.61 M24.88 12.61 C19.62 12.61, 14.36 12.61, 0 12.61 M0 12.61 C0 9.77, 0 6.92, 0 0 M0 12.61 C0 7.89, 0 3.17, 0 0" stroke="#000000" stroke-width="2" fill="none"></path></g><g stroke-linecap="round" transform="translate(54.74220068710298 416.4852513916178) rotate(0 12.43779953559212 6.304023542482355)"><path d="M0 0 C0 0, 0 0, 0 0 M0 0 C0 0, 0 0, 0 0 M0.13 12.04 C2.63 9.17, 5.13 6.29, 10.63 -0.03 M0.13 12.04 C3.83 7.78, 7.53 3.53, 10.63 -0.03 M5.51 18.04 C9.23 13.77, 12.94 9.5, 21.26 -0.07 M5.51 18.04 C11.74 10.88, 17.97 3.71, 21.26 -0.07 M16.14 18.01 C21.04 12.37, 25.94 6.74, 28.61 3.67 M16.14 18.01 C20.57 12.91, 25 7.82, 28.61 3.67 M-0.2 12.43 C-0.2 12.43, -0.2 12.43, -0.2 12.43 M-0.2 12.43 C-0.2 12.43, -0.2 12.43, -0.2 12.43 M11.84 12.3 C7.1 8.18, 2.37 4.06, -0.24 1.8 M11.84 12.3 C8.48 9.38, 5.12 6.46, -0.24 1.8 M24.63 12.82 C19.27 8.16, 13.91 3.5, 4.25 -4.89 M24.63 12.82 C18.94 7.87, 13.25 2.93, 4.25 -4.89 M29.88 6.78 C26.47 3.81, 23.05 0.85, 16.3 -5.03 M29.88 6.78 C24.81 2.37, 19.73 -2.04, 16.3 -5.03" stroke="#4c6ef588" stroke-width="1" fill="none"></path><path d="M0 0 C5.5 0, 10.99 0, 24.88 0 M0 0 C9.19 0, 18.37 0, 24.88 0 M24.88 0 C24.88 2.79, 24.88 5.58, 24.88 12.61 M24.88 0 C24.88 3.41, 24.88 6.82, 24.88 12.61 M24.88 12.61 C15.78 12.61, 6.69 12.61, 0 12.61 M24.88 12.61 C18.07 12.61, 11.27 12.61, 0 12.61 M0 12.61 C0 9.63, 0 6.65, 0 0 M0 12.61 C0 8.93, 0 5.25, 0 0" stroke="#000000" stroke-width="2" fill="none"></path></g><g transform="translate(35.29961547965701 458.973303629243) rotate(0 31.5 12.5)"><text x="0" y="0" font-family="Virgil, Segoe UI Emoji" font-size="20px" fill="#000000" text-anchor="start" style="white-space: pre;" direction="ltr" dominant-baseline="text-before-edge">Device</text></g><g stroke-linecap="round" transform="translate(117.3913945852292 92.84785548903051) rotate(0 35.408220894427785 54.15214451096952)"><path d="M1.64 1.65 L68.99 -1.24 L69.35 108.75 L1.45 108.61" stroke="none" stroke-width="0" fill="#ced4da"></path><path d="M-1.57 1.69 C27.44 -1.14, 51.68 -0.04, 72.28 1.79 M-0.3 -0.27 C18.55 -0.45, 36.97 -0.58, 71.67 0.88 M72.13 -1.85 C71.91 27.13, 70.71 53.77, 69.13 109.69 M70.55 -0.27 C70.47 41.16, 68.95 84.17, 71.15 108.44 M69.54 107.26 C50.93 109.3, 33.7 109.49, -0.72 108.68 M70.73 108.85 C45.62 108.6, 21.55 107.22, -0.19 107.71 M-1.28 107.37 C0.24 73.85, 1.52 39.3, 0.08 0.55 M0.94 108.66 C0.64 76.26, -0.1 45.49, -0.11 -0.29" stroke="#000000" stroke-width="1" fill="none"></path></g><g stroke-linecap="round" transform="translate(125.4990986753208 101.10503683942744) rotate(0 27.900581767571623 41.41639447687882)"><path d="M-1.83 -1.24 L54.33 0.45 L57.25 83.14 L0.24 81.67" stroke="none" stroke-width="0" fill="#fff"></path><path d="M0.67 -0.47 C20.17 0.17, 45.53 1.32, 54.98 0.39 M0.21 -0.2 C19.07 -0.17, 38.39 1.03, 55.36 0.89 M55.93 -0.53 C55.28 18.06, 54.65 40.63, 57.57 81.06 M56.41 -0.89 C54.68 19.57, 55.91 39.13, 55.56 82.09 M55.47 84.09 C43.12 83.99, 25.71 82.91, 0.98 84.32 M55.33 83.31 C40.67 82.23, 24.97 82.54, 0.1 82.19 M-0.45 81.97 C1.35 63.82, 0.61 49.01, -0.23 0.26 M0.78 82.02 C-0.74 64.98, -0.88 47.56, 0.82 0.82" stroke="#000000" stroke-width="1" fill="none"></path></g><g stroke-linecap="round" transform="translate(147.68576843967293 187.4827199620122) rotate(0 5.713912003219434 5.713912003219434)"><path d="M4.52 -0.9 C5.66 -1.18, 7.23 -0.24, 8.31 0.53 C9.39 1.31, 10.49 2.65, 10.99 3.75 C11.5 4.86, 11.79 5.93, 11.33 7.17 C10.86 8.4, 9.41 10.45, 8.22 11.15 C7.03 11.85, 5.51 11.57, 4.17 11.38 C2.83 11.18, 0.81 10.86, 0.18 9.97 C-0.46 9.08, 0.26 7.42, 0.37 6.05 C0.48 4.68, 0.04 2.78, 0.82 1.75 C1.6 0.73, 4.3 0.04, 5.07 -0.1 C5.83 -0.24, 5.19 0.97, 5.4 0.93 M5.06 0.5 C6.36 -0.12, 7.13 -0.68, 8.06 -0.44 C8.99 -0.21, 9.89 0.86, 10.64 1.89 C11.4 2.93, 12.7 4.62, 12.6 5.77 C12.49 6.93, 11.25 7.93, 10 8.8 C8.75 9.68, 6.67 11.01, 5.1 11.02 C3.54 11.04, 1.53 9.6, 0.62 8.91 C-0.28 8.22, -0.18 7.66, -0.33 6.86 C-0.49 6.06, -1.18 5.38, -0.31 4.13 C0.56 2.87, 3.96 -0.12, 4.87 -0.69 C5.78 -1.26, 5.06 0.26, 5.14 0.73" stroke="none" stroke-width="0" fill="#fff"></path><path d="M6.21 0.27 C7.31 0.18, 9.57 0.75, 10.4 1.68 C11.22 2.61, 11.23 4.51, 11.15 5.84 C11.08 7.16, 10.73 8.56, 9.95 9.62 C9.17 10.68, 7.49 12.08, 6.47 12.18 C5.44 12.29, 4.68 11.1, 3.81 10.26 C2.94 9.42, 1.74 8.34, 1.26 7.12 C0.79 5.9, 0.71 4.01, 0.97 2.92 C1.23 1.82, 1.96 1.14, 2.85 0.54 C3.74 -0.05, 5.76 -0.74, 6.32 -0.66 C6.88 -0.59, 5.99 0.9, 6.21 0.97 M4.82 -1.03 C5.74 -1.38, 5.38 -0.19, 6.45 0.51 C7.52 1.22, 10.48 2.32, 11.23 3.19 C11.98 4.06, 11.37 4.73, 10.96 5.73 C10.54 6.74, 9.75 8.32, 8.72 9.23 C7.69 10.13, 5.75 10.8, 4.78 11.18 C3.8 11.55, 3.48 12.35, 2.87 11.49 C2.27 10.63, 1.44 7.36, 1.15 6.02 C0.86 4.68, 0.48 4.48, 1.12 3.47 C1.77 2.45, 4.57 0.29, 5.02 -0.09 C5.46 -0.46, 4.09 0.94, 3.81 1.22" stroke="#000000" stroke-width="1" fill="none"></path></g><g stroke-linecap="round" transform="translate(133.7787890752913 111.64919351556762) rotate(0 19.620891367601104 9.944730235592885)"><path d="M0 0 C0 0, 0 0, 0 0 M0 0 C0 0, 0 0, 0 0 M0.17 6.07 C1.59 4.53, 4.14 2.53, 5.56 1.03 M-0.04 6.78 C1.15 4.08, 3.09 2.71, 4.83 0.38 M0.71 13.41 C5.41 8.45, 9.01 4.28, 10.86 -1.61 M-0.61 12.8 C2.86 9.21, 5.5 6.19, 11.05 -0.35 M0.97 18.02 C4.52 13.86, 9.27 4.72, 14.3 -1.07 M-1.05 17.48 C5.11 13.91, 9.41 8.67, 16.3 -0.6 M2.21 22.9 C7.28 16.94, 11.61 10.76, 21.27 0.43 M3.16 22.09 C8.57 14.94, 15.52 6.62, 20.62 -0.76 M5.71 23.74 C11.28 15.25, 19.17 9.39, 26.31 -0.78 M6.23 22.55 C13.96 14.86, 21.9 5.67, 25.61 0.64 M11.06 20.27 C18.13 15.28, 23.98 12.62, 31.95 -1.92 M12.1 22.05 C17.93 16.32, 21.39 12.87, 32.43 -0.12 M15.9 20.55 C23.03 14.36, 28.32 9.78, 36.49 -1.06 M18.46 22.75 C24.52 13.59, 30.54 6.85, 36.18 0.42 M22.93 21.73 C28.24 18.02, 30.58 14.21, 42.97 1.27 M24.14 21.97 C25.94 17.44, 29.74 14.15, 41.31 0.93 M27.64 23.01 C31.9 18.16, 32.82 17.14, 42.77 7.23 M29.35 22.73 C32.61 17.39, 37.1 11.44, 41.82 7.81 M33.18 22.34 C37.38 18.8, 38.11 15.8, 41.86 13.38 M34.42 22.08 C37.49 18.67, 40.25 14.86, 41.79 12.97 M-0.04 19.86 C-0.04 19.86, -0.04 19.86, -0.04 19.86 M-0.04 19.86 C-0.04 19.86, -0.04 19.86, -0.04 19.86 M6.27 19.71 C5.55 18.72, 3.62 18.27, 0.29 14.12 M6 19.87 C3.78 17.7, 1.91 15.91, 0.4 14.58 M11.62 21.15 C8.5 14.86, 3.1 10.83, 1.19 10.52 M11.6 19.8 C8 16.32, 5.13 13.91, 0.34 9.54 M17.93 20.07 C12.96 14.5, 7.14 9.98, -0.2 3.99 M17.6 19.39 C11.66 15.14, 5.75 8.57, 0.83 3.74 M22.05 20.79 C14.03 10.84, 5.41 4.09, 1.22 0.92 M23.61 19.15 C16.3 12.84, 8.36 7, -0.29 -0.56 M30.02 20.36 C23.81 13.23, 13.12 6.34, 6.08 -0.87 M30.95 18.88 C25.62 15.53, 18.85 10.15, 7.92 0.27 M37.1 20.62 C29.16 12.86, 17.71 4.31, 14.28 -0.95 M36.8 21.09 C29.91 14.7, 24.32 8.98, 13.06 -0.19 M41.48 20.2 C35.82 13.79, 29.21 10.49, 19.41 -2.58 M40.39 18.18 C33.47 11.46, 25.63 5.89, 20.06 -1.42 M38.71 10.79 C35.53 10.07, 32.2 7.77, 26.45 0.44 M40.01 12.27 C36.44 9.54, 31.96 5.1, 25.35 -1.33 M41.84 7.12 C36.47 5.04, 34.2 1.01, 30.92 -0.23 M40.35 8.06 C38.29 4.75, 35.72 2.8, 30.71 -0.59 M40.93 2.45 C39.96 1.36, 38.61 0.49, 37.63 -0.33 M40.45 2.05 C39.64 1.27, 38.96 0.71, 37.67 -0.45" stroke="#fab005" stroke-width="0.5" fill="none"></path><path d="M1.46 1.79 C10.03 0.27, 22.43 -0.72, 38.69 0.42 M0.86 0.88 C10.55 1.02, 21.37 0.78, 38.31 0.07 M37.56 1.38 C40.89 3.68, 37.85 10.35, 38.7 21.11 M39.57 0.13 C38.82 3.46, 38.69 7.77, 38.72 19.72 M38.52 20.26 C25.98 21.66, 10.25 20.01, 1.08 18.94 M39.05 19.3 C25.7 18.89, 11.03 18.9, -0.47 19.66 M0.08 20.44 C-0.31 15.04, -1.85 11.53, 0.7 1.55 M-0.11 19.6 C0.81 16.36, -0.92 10.59, -0.73 0.22" stroke="#000000" stroke-width="1" fill="none"></path></g><g stroke-linecap="round" transform="translate(133.7787890752913 147.20695356052204) rotate(0 19.620891367601104 9.944730235592885)"><path d="M0 0 C0 0, 0 0, 0 0 M0 0 C0 0, 0 0, 0 0 M-0.35 6.86 C2.1 4.96, 4.13 2.65, 5.25 0.06 M-0.62 6.13 C1.6 4.35, 3.67 1.63, 5.22 0.34 M1.66 12.78 C4.77 9.03, 6.95 2.76, 9.6 0.81 M0.45 12.16 C4.9 7.09, 9.02 2.02, 10.9 -0.11 M-0.75 19.91 C3.37 11.39, 7.94 6.17, 15.5 -0.64 M0.39 19.28 C5.26 13.71, 10.8 6.07, 15.08 -0.64 M2.39 22.18 C6.3 16.38, 10.76 12.42, 22.04 0.53 M2.19 22.36 C8.22 14.81, 12.83 7.9, 21.09 -0.28 M5.84 21.43 C13.98 15.32, 18.39 8.36, 27.65 0.51 M6.94 22.78 C11.9 17.2, 14.48 13.62, 25.65 -0.38 M13.4 20.65 C21.57 15.7, 26.5 4.72, 30.1 -1.61 M13.76 20.85 C18.26 16.35, 23.31 10.51, 31.57 -0.06 M17.94 20.19 C23.66 15.51, 28.32 8.74, 37.9 1.36 M17.95 21.31 C23.17 15.23, 29.04 8.37, 36.07 0.25 M24.35 22.48 C27.99 17.24, 35.57 9.85, 39.3 3.19 M22.5 21.62 C27.93 16.25, 34.25 8.86, 40.25 0.83 M29.28 21.09 C31.52 18.56, 37.97 12.77, 41.96 9.2 M28.32 22.42 C31.58 17.64, 35.84 14.45, 41.28 7.23 M34.92 21.58 C35.48 18.81, 39.08 16.62, 42.44 12.93 M34.57 21.92 C35.93 19.63, 37.59 17.69, 41.24 13.46 M-0.04 19.86 C-0.04 19.86, -0.04 19.86, -0.04 19.86 M-0.04 19.86 C-0.04 19.86, -0.04 19.86, -0.04 19.86 M6.81 19.83 C4.19 18.73, 2.34 15.87, 1.12 15.05 M6.2 19.82 C5.16 18.66, 3.22 16.95, 0.58 14.54 M12.82 18.63 C7.73 14.96, 5.08 13.98, 0.08 8.87 M11.72 19.55 C8.88 17.15, 4.97 13.53, 0.42 9.65 M19.59 20.03 C13.3 15.07, 3.82 7.46, 0.92 5.61 M17.78 20.37 C12.66 14.28, 8.39 10.09, 1.23 3.55 M23.11 18.67 C15 12.32, 6.98 5.89, 1.06 -0.43 M23.83 19.5 C17.9 15.23, 12.03 9.97, 1.19 -1.49 M31.93 20.26 C20.9 13.1, 12.21 4.48, 6.06 -1.56 M31.37 20.8 C25.06 15.67, 20.6 11.15, 7.91 -0.24 M38.54 20.93 C28.75 13.91, 23.12 6.82, 12.03 -2.08 M36.22 20.38 C30.67 14.92, 24.38 9.87, 12.12 0.02 M41.31 18.56 C34.82 15.6, 30.92 7.66, 19.78 -0.95 M40.76 17.76 C33.09 12.18, 27.52 4.92, 18.39 -1.6 M39.05 13.16 C33.98 9.09, 31.38 4.47, 24.52 -2.69 M40.91 13.65 C37.58 10.06, 34.25 6.26, 25.31 -0.89 M40 8.16 C38.94 5.19, 36.19 4.36, 30.96 -0.97 M41.09 7.29 C39.43 6.11, 36.64 4.54, 31.07 -0.8 M40.84 2.11 C39.28 1.1, 38.48 0.46, 37.34 -0.55 M40.4 1.94 C39.71 1.36, 39.13 0.8, 37.53 -0.32" stroke="#fab005" stroke-width="0.5" fill="none"></path><path d="M-0.82 0.39 C13.75 -0.94, 25.49 0.07, 38.85 0.61 M-0.45 0.89 C9.87 0.31, 20.07 -0.28, 38.98 -0.53 M41 -1.76 C37.79 3.89, 38.53 10.05, 37.48 18.09 M39 -0.74 C38.94 5.48, 38.79 12.07, 39.87 20.88 M40.23 21.38 C24.12 19.8, 11.1 19.01, 0.95 20.26 M39.34 19.25 C30.09 19.02, 22.31 19.43, -0.43 20.3 M-0.23 20.15 C-1.78 17.6, 0.69 13.14, -1.62 0.08 M0.81 20.71 C-0.89 14.02, -0.71 9.61, 0.72 0.15" stroke="#000000" stroke-width="1" fill="none"></path></g><g stroke-linecap="round"><g transform="translate(75.28155611731671 233.0083738230877) rotate(0 29.46932273142363 -26.254879988062214)"><path d="M-1.07 0.96 C8.69 -7.62, 47.88 -42.84, 57.72 -51.92 M0.57 0.42 C10.79 -8.43, 50.63 -44.66, 60.01 -53.47" stroke="#1e1e1e" stroke-width="1" fill="none"></path></g><g transform="translate(75.28155611731671 233.0083738230877) rotate(0 29.46932273142363 -26.254879988062214)"><path d="M47.82 -28.16 C51.29 -33.77, 51.78 -37.89, 59.73 -51.56 M47.01 -26.42 C51.08 -34.85, 53.11 -42.07, 60.47 -53.1" stroke="#1e1e1e" stroke-width="1" fill="none"></path></g><g transform="translate(75.28155611731671 233.0083738230877) rotate(0 29.46932273142363 -26.254879988062214)"><path d="M33.92 -43.26 C40.52 -45.29, 44.19 -45.95, 59.73 -51.56 M33.11 -41.51 C41.03 -45.71, 46.95 -48.71, 60.47 -53.1" stroke="#1e1e1e" stroke-width="1" fill="none"></path></g></g><mask></mask><g stroke-linecap="round"><g transform="translate(65.52241660884744 319.2598433343369) rotate(0 -0.8414415624091873 36.98197249545942)"><path d="M-1.1 0.91 C-1.42 12.99, -1.18 61.53, -1.13 73.62 M0.52 0.34 C-0.04 12.6, -1.86 60.11, -2.21 71.97" stroke="#1e1e1e" stroke-width="1" fill="none"></path></g><g transform="translate(65.52241660884744 319.2598433343369) rotate(0 -0.8414415624091873 36.98197249545942)"><path d="M-9.97 43.03 C-6.36 54.01, -3.27 63.43, -0.58 71.99 M-12.33 42.48 C-8.83 48.84, -6.32 55.41, -1.7 71.71" stroke="#1e1e1e" stroke-width="1" fill="none"></path></g><g transform="translate(65.52241660884744 319.2598433343369) rotate(0 -0.8414415624091873 36.98197249545942)"><path d="M10.54 43.74 C6.67 54.28, 2.3 63.43, -0.58 71.99 M8.18 43.2 C7.18 49.26, 5.18 55.67, -1.7 71.71" stroke="#1e1e1e" stroke-width="1" fill="none"></path></g></g><mask></mask></svg>